<svg width="281" height="334" viewBox="0 0 281 334" fill="none" xmlns="http://www.w3.org/2000/svg">
<path d="M180.396 302.527C180.598 305.111 178.737 307.627 165.106 317.239C155.466 324.039 150.623 327.439 147.619 328.505C143.718 329.865 134.123 332.426 120.559 327.847C120.178 326.351 119.685 323.586 120.559 320.435C122.039 315.04 126.411 312.388 128.339 311.209C133.293 308.194 138.226 308.239 140.311 308.375C141.992 307.536 144.66 305.927 147.148 303.093C150.085 299.716 151.296 296.225 151.812 294.298C152.282 294.298 152.776 294.321 153.247 294.343C153.672 294.956 154.098 295.568 154.524 296.18C156.385 294.978 158.851 293.074 161.25 290.263C163.761 287.294 165.263 284.369 166.16 282.261C167.169 284.483 168.918 287.951 171.742 291.714C176.876 298.582 180.172 299.285 180.419 302.549L180.396 302.527Z" fill="white"/>
<path d="M69.7793 285.982C65.5645 290.697 61.3496 295.412 57.1124 300.127C45.1629 293.576 35.6796 287.07 28.752 281.856C13.5069 270.386 8.82126 263.88 6.22062 256.921C4.94272 253.498 4.38221 250.506 4.09076 248.488C6.53447 247.06 8.95577 245.609 11.3995 244.181C15.6816 245.337 20.2551 246.788 25.0304 248.602C34.8725 252.387 43.19 256.853 49.9158 261.16C50.2745 263.653 50.8126 267.054 51.5076 271.066C52.3147 275.713 52.5613 276.642 53.3235 277.776C56.4174 282.309 62.7845 282.445 63.3001 282.445C65.3627 282.445 67.0217 281.992 68.0978 281.584C68.6359 283.035 69.1964 284.508 69.7345 285.959L69.7793 285.982Z" fill="white"/>
<path d="M46.8893 81.7607C47.8982 81.0353 48.4362 81.2167 48.8398 82.4861C49.5572 84.6849 50.4091 86.8384 51.3731 88.9239C54.6912 96.0645 58.7715 102.684 63.7486 108.759C64.1746 109.28 64.6678 109.733 64.3987 110.55C63.771 112.431 63.1881 114.335 62.6052 116.217C62.4483 116.987 62.2913 117.781 61.9999 118.347C53.5478 107.557 46.9341 95.7018 42.383 82.6221C43.9075 82.3274 45.4096 82.0327 46.8893 81.738V81.7607Z" fill="white"/>
<path d="M170.801 216.23C169.859 216.661 168.85 216.888 167.909 217.432C166.295 218.407 166.25 218.316 165.801 216.502C165.779 216.366 165.689 216.253 165.622 216.14C161.497 205.667 158.829 194.809 157.192 183.679C156.878 181.616 156.901 181.616 159.008 181.276C160.421 180.369 162.08 180.392 163.627 180.097C164.299 179.961 164.165 180.528 164.187 180.913C164.523 184.789 165.106 188.62 166.003 192.406C167.729 199.751 169.411 207.095 171.855 214.236C172.348 215.686 172.124 216.026 170.756 216.276L170.801 216.23Z" fill="white"/>
<path d="M29.4244 59.2261C29.133 59.2941 28.9984 59.1354 28.8864 58.886C27.4067 57.7526 26.0391 56.5285 25.3665 54.715C25.1199 54.0803 25.0078 53.3776 25.7252 53.0603C26.4202 52.7429 27.2497 52.6522 27.743 53.491C28.976 55.6445 30.6799 57.3446 32.451 59.022C32.6528 59.1127 32.8546 59.1807 33.0563 59.2714C34.0204 59.6568 33.7738 60.4728 33.5271 61.0849C33.2357 61.8103 32.5855 61.3569 32.1596 61.1755C31.1059 60.7222 30.0746 60.2008 29.402 59.2034L29.4244 59.2261Z" fill="white"/>
<path d="M34.2675 53.7666C34.8055 53.6533 35.097 53.9253 35.2091 54.4467C35.4109 55.3308 35.6575 56.1922 35.8368 57.0762C35.9041 57.4163 36.0386 57.847 35.7023 58.0963C35.366 58.3457 35.0297 58.0283 34.7383 57.847C32.9447 56.7815 31.4426 55.3534 30.1423 53.744C29.3801 52.7919 28.4833 51.8398 28.3039 50.5024C27.6538 48.8023 28.2143 47.8049 30.0751 47.5328C29.4922 50.185 30.8597 51.7265 32.9896 52.8599C33.3483 53.0413 33.6621 53.3133 33.976 53.54C34.1554 53.5173 34.2675 53.5626 34.2675 53.7666Z" fill="white"/>
<path d="M23.8648 26.2011C24.089 24.8864 24.9858 25.4077 25.6135 25.6571C27.3174 26.3371 28.3935 27.7426 29.4024 29.216C32.3393 33.5684 34.1329 38.5554 36.5766 43.1798C37.0025 43.9732 36.5317 44.0185 35.9264 43.9051C34.9175 44.0865 33.8414 43.7918 32.8774 44.2225C32.4514 44.4038 32.3393 44.1772 32.1824 43.8598C29.7835 39.2581 27.3174 34.7018 24.6943 30.2134C23.9769 28.9893 23.5958 27.6292 23.8872 26.1785L23.8648 26.2011Z" fill="white"/>
<path d="M46.0819 44.153C44.3332 43.5636 42.4724 43.9717 40.6789 43.6543C42.5845 41.1381 43.4589 38.2819 44.1987 35.3577C44.692 33.4309 44.9834 31.4587 45.7681 29.6226C46.4855 27.9678 47.2926 26.313 49.3327 25.9276C50.9469 25.5196 51.216 25.6783 51.2384 27.265C51.3056 32.9775 49.9156 38.3726 47.7186 43.5863C47.3598 44.425 46.8666 44.7197 46.0819 44.153Z" fill="white"/>
<path d="M47.2481 48.526C49.8711 49.7275 51.3284 52.0396 52.6511 54.4652C52.808 54.7598 52.696 55.0772 52.6511 55.3946C52.3821 57.0267 51.7319 58.5228 50.7903 59.8602C48.2569 63.4645 47.5395 67.4088 48.5484 71.6931C48.8398 72.9399 49.4676 73.8013 50.7455 74.1187C51.0145 74.1867 51.2611 74.3 51.5077 74.3907C52.5166 74.7987 52.4942 75.3654 51.844 76.1361C51.2387 76.8389 50.3419 76.9069 49.6021 77.3149C46.5979 78.9244 43.3919 79.8311 40.0066 80.0804C38.3028 80.2165 38.1907 80.0804 38.3252 78.2896C38.4373 77.0882 38.9753 75.9775 38.6615 74.708C38.2579 73.0306 37.0921 72.0558 35.8815 71.0811C33.9086 69.4716 31.8012 67.9982 30.456 65.754C30.0076 65.006 29.4247 64.2806 29.7834 63.3058L29.7162 63.5098C29.7162 63.5098 29.6265 63.4645 29.5817 63.4418C29.6489 63.3965 29.7162 63.3512 29.7834 63.3058C30.7699 64.1219 31.9357 64.3712 33.1463 64.4846C35.2762 64.6886 36.4644 63.1925 35.7694 61.175C35.5676 60.6083 35.5452 60.4043 36.1954 60.2683C37.6078 59.9736 38.0113 58.8855 37.9216 57.6161C37.8768 56.7547 37.6974 55.9159 37.5405 55.0772C37.3836 54.2158 37.8768 53.6038 38.7287 53.8078C39.3116 53.9438 39.8721 53.9891 40.4326 54.0345C42.002 54.1705 42.6297 55.2359 42.1141 56.7547C41.7778 57.6841 41.4639 58.6135 41.5984 59.6336C41.7329 60.563 42.114 60.835 42.8987 60.2456C43.0108 60.1096 43.1229 59.9736 43.2126 59.8149C44.2439 58.1374 45.2303 56.3466 44.2663 54.3972C43.3695 52.5383 41.4639 52.4023 39.6479 52.289C38.0113 52.1983 36.3523 52.0623 34.7829 51.5409C32.967 50.9516 32.2271 49.9315 32.3617 48.2314C32.4962 47.574 33.0791 47.5966 33.5275 47.5286C36.9128 47.0753 40.2981 46.4859 43.7507 46.8486C45.0286 46.9846 46.0823 47.3019 46.979 48.2087C47.1584 48.2313 47.2929 48.2994 47.2705 48.526H47.2481Z" fill="white"/>
<path d="M182.817 236.519C183.019 236.542 183.087 236.678 183.087 236.859C183.154 236.927 183.199 236.995 183.266 237.063C183.535 237.063 183.669 237.222 183.804 237.403C186.27 240.259 188.938 242.934 191.74 245.496C192.66 246.334 193.579 247.128 194.005 248.42C194.386 249.508 193.781 251.186 192.682 251.435C192.346 251.503 192.054 251.526 191.965 251.095C190.35 250.369 189.117 249.123 187.862 247.967C185.351 245.654 183.288 242.957 181.248 240.237C180.845 239.693 180.351 239.171 179.634 239.307C178.917 239.443 179.073 240.101 179.096 240.645C181.741 245.246 184.88 249.463 188.646 253.203C189.207 253.77 189.969 254.2 190.126 255.039C190.238 255.719 191.404 256.218 190.709 256.875C190.171 257.397 189.655 256.331 189.028 256.218C188.377 256.059 187.974 255.538 187.57 255.084C183.782 250.891 179.746 246.924 176.899 241.982C176.697 241.619 176.428 241.461 175.935 241.461C175.24 241.461 175.329 241.959 175.173 242.322C175.329 243.569 175.598 244.816 176.271 245.858C178.558 249.372 181.002 252.795 184.454 255.311C184.902 255.629 185.059 255.969 185.104 256.558C183.983 256.49 183.042 256.399 182.235 255.719C181.226 255.515 180.441 254.926 179.679 254.314C177.459 252.523 175.419 253.747 173.715 251.458C170.509 247.128 166.048 249.893 164.075 244.952C163.649 243.864 165.958 231.645 165.958 230.444C165.958 229.356 165.869 228.313 165.263 227.384C164.837 226.704 164.456 225.978 163.985 225.321C163.133 224.119 163.133 223.711 164.322 222.782C167.415 220.379 171.025 219.178 174.724 218.112C175.464 217.908 175.823 218.452 176.293 218.883C176.899 219.427 176.137 219.654 176.069 219.994C175.935 220.629 175.307 221.399 175.711 221.898C176.54 222.918 176.921 224.165 177.84 225.14C182.167 229.696 187.705 232.756 192.077 237.222C192.951 238.129 193.668 239.035 194.05 240.169C194.386 241.211 193.781 241.778 192.525 241.687C191.942 241.687 191.561 241.302 191.113 241.007C189.431 239.874 188.041 238.401 186.606 236.995C185.553 235.952 184.409 234.978 182.84 234.842C182.548 235.408 182.885 235.975 182.885 236.542L182.817 236.519Z" fill="white"/>
<path d="M174.388 214.823C174.208 214.529 173.984 214.279 173.894 213.894C171.765 205.484 169.366 197.165 167.527 188.687C167.124 186.805 166.653 184.878 166.675 182.725C167.617 183.292 168.402 183.722 169.276 183.926C170.531 184.244 171.675 184.04 172.684 183.224C173.939 182.203 174.791 180.957 175.127 179.325C175.822 176.038 175.778 172.887 174.343 169.781C171.07 162.709 168.133 155.523 168.29 147.475C168.29 147.271 168.357 146.977 168.088 146.886C167.751 146.773 167.617 147.09 167.482 147.294C167.034 148.065 167.056 148.949 166.9 149.788C166.81 154.775 168.133 159.444 169.926 164.001C170.89 166.449 171.921 168.829 172.975 171.232C174.231 174.088 174.029 176.967 173.267 179.869C173.02 180.821 172.527 181.002 171.742 180.254C170.733 179.302 169.5 178.758 168.2 178.395C166.429 177.919 164.725 177.76 162.819 178.078C160.084 178.554 157.439 179.438 154.726 179.959C153.47 180.209 152.349 180.549 151.116 179.982C150.758 179.823 150.489 179.914 150.69 179.347C151.363 177.511 150.802 175.811 149.973 174.156C149.502 173.249 149.031 172.32 148.807 171.277C148.605 171.119 148.673 170.733 148.314 170.688C147.955 171.255 148.135 171.912 148.09 172.524C147.978 174.111 147.619 175.652 146.991 177.103C145.893 179.687 144.211 179.846 141.7 179.189C139.615 178.645 138.091 174.995 138.494 172.343C138.898 169.668 139.481 167.016 139.638 164.295C139.795 161.303 139.66 158.402 137.911 155.817C137.62 155.364 137.261 154.775 136.656 155.047C135.938 155.364 136.364 155.999 136.544 156.452C137.351 158.606 137.62 160.804 137.598 163.094C137.598 166.517 136.589 169.804 136.32 173.181C136.252 173.929 135.983 174.428 135.445 174.904C132.194 177.692 128.832 180.299 125.222 182.611C124.572 183.02 123.922 183.428 123.316 183.881C122.644 184.38 122.397 184.992 123.07 185.717C124.437 185.876 125.603 185.241 126.724 184.606C129.818 182.838 132.62 180.685 135.356 178.44C136.678 177.352 136.678 177.375 137.104 179.053C137.665 180.481 138.853 181.501 139.638 182.793C139.974 183.337 140.534 183.609 141.162 183.836C142.552 184.312 143.965 184.561 145.399 184.38C147.91 184.04 150.399 184.266 152.865 184.697C153.291 184.765 153.784 184.856 154.188 184.765C154.86 184.629 155.017 184.856 155.107 185.49C156.923 196.53 159.389 207.365 163.716 217.725C163.963 218.337 163.918 218.79 163.559 219.357C162.864 220.49 161.743 221.17 160.914 222.168C159.86 223.437 159.972 224.979 161.071 226.203C161.586 226.77 162.617 226.928 162.617 227.994C162.617 229.218 162.662 230.442 162.685 231.643C162.73 233.479 161.676 235.043 161.407 236.812C160.981 239.849 160.488 242.887 162.236 245.72C162.483 246.128 162.147 246.31 161.855 246.4C158.851 247.42 156.34 249.574 153.134 250.141C151.363 250.458 149.637 250.934 147.866 251.229C143.202 252.045 143.202 252.022 140.602 248.078C134.952 239.486 130.401 230.306 126.747 220.672C123.967 213.327 122.532 205.62 120.738 198.003C118.138 186.986 116.008 175.902 115.133 164.59C114.887 161.371 114.775 158.084 113.766 154.933C113.183 154.276 112.735 154.299 112.421 155.16C112.107 156.021 111.995 156.906 112.017 157.835C112.107 161.281 112.152 164.726 112.331 168.149C112.555 172.66 112.622 177.194 113.183 181.705C113.99 188.052 115.627 194.218 116.837 200.474C118.362 208.385 120.043 216.229 123.07 223.755C124.998 228.538 127.307 233.117 129.527 237.764C129.639 237.9 129.773 238.013 129.863 238.172C132.441 242.864 135.311 247.352 138.629 251.523C138.741 251.659 138.831 251.818 138.696 252.113C137.956 252.113 137.149 252.113 136.364 252.113C131.612 251.999 126.881 251.478 122.195 250.639C108.766 248.214 97.3773 241.799 87.7146 232.21C81.1681 225.704 76.0341 218.11 71.909 209.836C63.0309 191.996 59.7801 172.977 60.5872 153.188C61.3943 133.104 66.2369 113.972 74.2182 95.6328C81.9528 77.8835 92.4451 61.9476 105.628 47.8705C121.613 30.8012 140.31 17.8576 162.438 10.2863C179.073 4.59654 196.045 2.71506 213.442 6.09265C215.975 6.59136 218.509 7.11273 221.244 8.01947C220.908 8.22348 220.796 8.29149 220.683 8.33683C216.558 10.105 212.971 12.7345 209.474 15.5227C206.066 18.2202 202.389 20.6231 199.789 24.2727C192.547 34.4508 189.095 45.921 188.489 58.3206C187.749 73.1911 190.395 87.5629 195.282 101.527C198.152 109.733 201.134 117.893 204.228 125.986C208.599 137.501 211.985 149.221 213.173 161.553C213.487 164.907 214.339 168.24 214.451 171.64C214.675 179.665 213.016 187.395 210.841 195.124C206.985 208.839 198.847 219.244 187.57 227.404C187.099 227.744 186.696 228.175 186.068 227.608C184.005 225.795 181.876 224.049 179.813 222.236C179.23 221.714 178.827 221.08 179.23 220.196C180.284 217.838 178.109 214.869 175.576 214.959C175.172 214.959 174.679 215.254 174.343 214.778L174.388 214.823Z" fill="#B7DDD6"/>
<path d="M167.482 148.495C168.02 156.134 171.204 165.02 172.908 170.121C172.908 170.121 174.477 174.836 173.222 180.798C173.177 181.024 173.02 181.727 172.616 181.84C172.37 181.908 172.056 181.727 171.697 181.296C170.688 180.14 169.455 179.437 168.155 179.007C166.384 178.417 164.68 178.213 162.774 178.621C160.039 179.211 157.394 180.299 154.681 180.956C153.425 181.274 152.686 181.727 151.453 181.024L151.094 180.979C150.735 180.775 150.466 180.888 150.668 180.186C151.34 177.919 150.78 175.811 149.95 173.77C149.48 172.637 149.009 171.504 148.785 170.234C148.583 170.03 148.65 169.554 148.291 169.486C147.933 170.211 148.112 171.005 148.067 171.776C147.955 173.748 147.596 175.629 146.969 177.443C145.87 180.639 144.189 180.843 141.678 180.004C139.593 179.324 138.068 174.813 138.472 171.526C138.875 168.217 139.503 166.947 139.66 163.592C139.817 159.897 139.369 159.013 137.62 155.817C137.62 155.817 160.846 144.596 167.505 148.495H167.482Z" fill="#B7DDD6"/>
<path d="M98.8796 80.3073C101.951 80.3753 104.978 80.7833 107.959 81.6674C108.767 81.9168 108.789 82.0981 108.677 82.8008C108.206 85.6117 107.018 88.1959 106.278 90.8934C105.807 92.5936 105.135 94.2484 104.44 95.8578C103.072 99.0994 101.503 102.25 99.8661 105.356C98.8796 107.215 97.8259 109.051 96.5704 110.751C95.4271 112.315 94.4406 114.015 93.2748 115.534C91.4588 117.891 89.4859 118.866 86.6163 116.622C84.2174 114.741 83.1189 112.224 83.2085 109.164C83.3206 106.081 84.1501 103.112 84.733 100.097C85.5177 96.1072 86.8629 92.3215 88.0959 88.4906C88.6116 86.8585 89.3066 85.249 89.9792 83.6622C90.6966 81.9621 91.9745 80.942 93.7904 80.67C95.4719 80.4206 97.1533 80.2166 98.8348 80.262L98.8796 80.3073Z" fill="white"/>
<path d="M113.205 119.662C113.25 114.652 113.968 110.98 114.64 107.285C115.402 103.205 116.591 99.2832 117.958 95.407C118.519 93.7975 119.146 92.2107 119.931 90.7146C120.29 90.0345 120.94 89.5585 121.994 89.8305C123.563 90.2385 124.796 91.168 126.119 92.0067C131.522 95.475 135.782 99.9406 138.113 106.106C138.472 107.059 138.382 107.943 138.024 108.713C136.342 112.363 134.818 116.126 132.71 119.571C131.499 121.566 130.289 123.561 128.787 125.375C127.464 126.961 126.074 128.48 124.505 129.84C123.003 131.155 121.478 132.334 119.415 132.492C118.474 132.56 117.532 132.424 116.815 131.699C115.447 130.339 114.752 128.616 114.169 126.825C113.295 124.105 113.138 121.272 113.183 119.662H113.205Z" fill="white"/>
<path d="M158.38 290.468C156.228 284.71 151.229 282.556 148.09 276.866C146.431 273.874 144.166 267.844 144.996 261.248C145.377 258.142 146.341 255.762 144.996 254.379C143.427 252.77 139.458 253.291 138.674 254.923C138.293 255.717 138.831 256.442 139.301 257.984C140.131 260.749 139.66 262.789 139.503 264.784C138.831 274.056 141.835 280.607 141.835 280.607C145.018 287.543 149.637 287.022 152.484 293.936C152.843 294.82 153.583 296.792 155.017 297.064C156.34 297.313 157.954 295.999 158.56 294.525C159.21 292.984 158.717 291.397 158.38 290.49V290.468Z" fill="#B7DDD6"/>
<path d="M86.818 235.769C84.1501 237.832 81.8857 238.762 79.3972 241.029C73.2991 246.628 66.4613 254.675 60.6771 260.614C56.7537 264.672 51.9336 269.953 52.3147 275.076C52.4492 275.19 57.359 279.157 57.4935 279.247C59.1526 280.336 59.1526 280.313 60.139 278.613C62.5155 274.51 65.3179 270.747 68.4566 267.165C75.0254 259.73 82.2444 252.975 89.172 245.902C89.9343 245.109 90.3602 244.746 91.2346 243.794C91.8623 243.091 92.3555 242.661 92.7815 242.23C93.3868 241.777 87.513 235.996 86.818 235.747V235.769Z" fill="#B7DDD6"/>
<path d="M226.333 8.0861C221.065 5.90994 215.594 4.34582 209.967 3.41641C187.346 -0.301203 166.003 4.02846 145.646 14.1159C122.622 25.5181 104.058 42.2701 88.8582 63.0116C79.3524 75.978 71.8419 90.0324 66.2595 105.152C66.1474 105.447 66.0353 105.719 65.8335 106.195C64.8919 104.971 64.0624 103.883 63.2105 102.795C58.3006 96.3115 54.4669 89.239 51.8663 81.4864C51.5076 80.3756 51.4628 79.6729 52.8079 79.1062C54.4221 78.4261 55.3637 76.2273 55.0723 74.6859C54.7808 73.1671 53.2787 71.8523 51.3507 71.671C50.4315 71.5803 50.2297 71.2176 50.1176 70.3562C49.8262 68.0894 50.6781 66.1852 51.6421 64.2811C52.8079 62.0142 54.1307 59.8154 54.8481 57.2992C55.6552 54.4656 55.4086 51.9495 53.2339 49.8186C52.2026 48.7985 51.2834 47.6878 50.1624 46.7811C49.3553 46.1237 49.4226 45.5796 49.871 44.8542C52.3595 40.5472 53.5478 35.8322 54.0634 30.9359C54.2428 29.3037 54.2428 27.6716 53.9065 26.0621C53.5029 24.158 52.4268 23.2739 50.5212 23.2513C48.1896 23.2513 46.3736 24.226 44.9836 26.0848C43.8178 27.6263 43.078 29.3491 42.5847 31.2079C41.688 34.6761 40.8136 38.1217 39.9393 41.59C39.8271 42.0207 39.8047 42.4741 39.7375 42.9274C39.6926 43.1995 40.3428 43.5621 39.6478 43.7435C39.177 43.8568 38.9528 43.6302 38.7734 43.1541C38.1905 41.6353 37.5852 40.1166 36.9126 38.6431C35.5899 35.7189 34.1999 32.8173 32.5857 30.0518C31.5544 28.2836 30.3662 26.6289 28.8417 25.2688C28.2812 24.77 27.6759 24.2487 27.0033 23.9086C24.6044 22.7752 21.7348 22.6619 21.5779 26.9689C21.4882 28.941 21.9142 30.7545 22.7885 32.4773C24.6269 36.1496 26.5774 39.7765 28.6624 43.3128C29.1107 44.0835 29.4694 44.5142 28.3036 45.1036C26.5101 46.0103 25.8824 47.9598 26.3532 50.1586C26.5325 50.9294 26.4877 51.2241 25.5909 51.3827C23.7525 51.7228 22.7212 53.4682 23.0575 55.3951C23.5283 58.0019 24.9632 59.9514 27.0033 61.4929C27.5414 61.9009 27.8552 62.2182 27.4965 63.0116C27.0257 64.077 27.5414 65.1425 27.9898 66.1172C29.2228 68.8601 31.2406 70.9909 33.5049 72.8724C34.8501 73.9831 35.6572 75.1392 35.1191 77.066C34.7828 78.2901 35.0294 79.6729 35.3881 80.965C35.7693 82.3251 37.092 83.2545 38.7286 83.0732C39.8047 82.9371 40.1186 83.4132 40.4325 84.2519C41.9346 88.1736 43.4591 92.0952 45.0508 95.9715C46.665 99.8704 48.7725 103.52 51.1489 106.988C53.5478 110.479 55.431 114.333 57.9868 117.733C58.8836 118.912 59.601 120.249 60.8789 121.111C61.4618 121.519 61.0806 122.017 60.9685 122.448C57.5608 136.389 56.0811 150.557 56.7986 164.906C57.7177 183.517 62.2689 201.108 71.7074 217.247C75.0703 223.005 79.0833 228.264 83.6793 233.093C84.8003 234.271 84.7554 234.203 83.4327 235.042C79.7559 237.377 76.5724 240.301 73.8596 243.701C70.4295 248.008 66.5958 251.975 62.7397 255.874C59.6906 258.957 57.8298 262.902 55.005 266.12C54.6911 266.483 54.3997 266.891 54.041 267.367C53.3908 266.211 52.6958 265.304 53.4357 263.854C53.9961 262.72 53.1218 261.677 52.1353 261.02C44.468 255.852 36.2401 251.771 27.6086 248.507C23.5956 246.988 19.5377 245.515 15.6367 243.656C12.0272 241.933 8.77643 242.5 5.81709 245.13C4.40466 246.376 2.94742 247.555 1.57983 248.892C0.548553 249.89 0.100159 251.001 0.0328979 252.361C-0.191284 256.237 0.727921 259.864 2.85776 263.083C6.53452 268.637 10.7942 273.692 16.5559 277.092C26.0841 282.714 34.3569 289.9 42.1139 297.743C43.3246 298.967 44.6473 300.055 45.9252 301.188C48.3689 303.319 51.2834 304.226 54.4445 304.407C56.0811 304.498 57.6729 303.387 58.211 301.801C58.3455 301.438 58.5921 301.211 58.8387 300.939C62.7397 296.677 66.3492 292.166 69.8914 287.61C71.0348 286.137 72.0885 285.049 73.9942 284.958C74.5546 284.935 75.0927 284.618 75.6308 284.346C76.4603 283.938 77.2001 283.348 77.1553 282.306C77.1329 281.195 76.4154 280.47 75.4514 280.062C73.7475 279.313 72.1782 279.767 70.7434 280.742C69.8466 281.354 69.2861 281.535 68.479 280.492C67.4253 279.155 65.7214 278.792 63.9951 278.429C65.4972 275.913 67.1787 273.76 68.7705 271.538C74.7116 263.242 82.2893 256.554 89.6652 249.663C91.5485 247.918 93.4093 246.15 95.2028 244.313C95.7409 243.769 96.0547 243.792 96.6376 244.2C99.6867 246.354 102.893 248.28 106.233 249.935C106.48 250.049 106.771 250.162 106.883 250.366C108.991 251.409 110.067 252.043 111.972 252.61C120.043 255.036 128.069 256.917 136.477 256.441C137.598 256.373 137.934 256.486 137.799 257.824C137.261 263.128 137.934 268.41 138.45 273.692C139.01 279.313 141.252 284.096 144.929 288.29C146.678 290.285 148.202 292.484 149.883 294.547C150.444 295.227 150.332 295.68 149.996 296.451C148.942 298.74 147.417 300.667 146.005 302.707C144.727 304.521 142.978 305.79 141.23 307.037C140.535 307.536 139.683 307.422 138.898 307.513C134.616 308.08 130.401 308.964 126.5 310.868C121.613 313.271 119.259 317.374 119.281 322.882C119.281 325.353 119.55 327.756 120.402 330.091C120.649 330.793 121.097 331.065 121.702 331.292C125.29 332.607 129.056 332.947 132.8 333.083C138.001 333.287 143.203 332.811 148.337 332.154C151.879 331.7 155.085 330.159 157.753 327.824C166.294 320.343 175.06 313.135 183.221 305.223C184.521 303.977 184.79 302.73 183.961 301.665C183.378 300.939 182.705 300.191 181.921 299.715C179.836 298.446 178.356 296.587 176.764 294.819C175.128 292.983 173.715 290.92 172.258 288.948C170.083 285.978 168.761 282.668 167.976 279.087C167.864 278.611 167.752 278.112 167.55 277.659C166.967 276.344 165.689 276.14 164.747 277.205C163.694 278.407 163.335 279.812 163.828 281.376C164.097 282.283 164.277 282.963 163.088 283.507C162.169 283.915 161.811 285.094 161.138 285.978C159.12 284.074 157.528 281.852 155.914 279.654C155.287 278.815 154.771 277.908 154.076 277.137C151.273 274.145 149.973 270.586 149.592 266.506C149.278 263.038 148.785 259.592 148.628 256.101C148.583 255.285 148.718 254.945 149.614 254.764C152.507 254.197 155.331 253.29 158.134 252.315C160.286 251.567 162.304 250.479 164.299 249.369C164.747 249.119 165.039 249.028 165.51 249.255C169.119 251.069 172.93 252.497 175.845 255.557C177.526 257.325 179.679 258.481 182.033 259.229C183.243 259.615 184.409 259.819 185.508 258.844C185.979 258.436 186.629 258.3 187.279 258.527C188.624 258.98 189.947 258.98 191.359 258.708C193.444 258.3 194.162 257.552 193.78 255.466C193.579 254.401 193.736 253.902 194.677 253.29C197.681 251.363 198.152 248.802 196.314 245.651C196.022 245.152 195.753 244.79 196.516 244.223C197.749 243.316 197.861 241.299 196.942 239.508C195.462 236.674 193.511 234.158 191.157 231.869C193.085 230.758 194.7 229.352 196.269 227.879C207.613 217.111 214.742 203.986 216.917 188.391C219.742 168.261 217.679 148.676 209.922 129.77C205.438 118.867 200.977 107.94 197.502 96.6515C194.162 85.816 192.144 74.7765 192.032 63.397C191.92 50.2267 195.081 38.0311 202.367 27.0369C203.892 24.7247 205.73 22.7072 207.927 20.9844C210.931 18.6269 213.868 16.1561 216.872 13.7985C219.361 11.8264 222.074 10.3076 225.1 9.35553C225.616 9.08351 226.311 9.03818 226.311 8.22211L226.333 8.0861ZM12.498 252.021C12.6998 252.021 12.7671 252.134 12.7446 252.315C13.0137 252.361 13.1258 252.542 13.1034 252.814C13.3051 252.814 13.3948 252.905 13.35 253.109C13.7759 253.177 14.0001 253.426 13.9553 253.88C14.6951 254.016 14.9417 254.718 15.3677 255.194C17.1388 257.166 18.8203 259.252 21.1071 260.68C23.1472 261.949 25.0304 261.541 26.0617 259.683C26.2411 259.365 26.2635 258.572 26.9137 259.071C27.519 259.547 28.7744 259.388 28.6399 260.635C28.5502 261.383 28.326 262.131 28.1467 262.879C28.1467 263.287 28.2364 263.718 28.1019 264.08C27.2275 266.755 26.8912 269.521 26.4653 272.286C26.2859 273.488 25.972 273.488 25.1201 272.785C20.8156 269.339 16.399 266.03 12.1842 262.426C8.57465 259.365 5.97403 255.92 5.23419 251.114C4.87549 248.824 4.71854 248.824 6.69144 247.691C6.91563 247.555 7.18466 247.464 7.43127 247.351C7.5658 247.124 7.74515 247.056 7.99176 247.124C8.57466 246.762 9.17999 246.354 9.78531 246.014C10.0992 245.832 10.6148 245.651 10.6148 246.195C10.6148 248.008 11.803 249.482 12.0721 251.205C12.3859 251.25 12.4532 251.431 12.386 251.726C12.5877 251.726 12.655 251.839 12.6101 252.021H12.498ZM182.817 236.493C183.019 236.516 183.086 236.652 183.086 236.833C183.154 236.901 183.199 236.969 183.266 237.037C183.535 237.037 183.669 237.196 183.804 237.377C186.27 240.233 188.938 242.908 191.74 245.47C192.659 246.308 193.579 247.102 194.005 248.394C194.386 249.482 193.78 251.159 192.682 251.409C192.346 251.477 192.054 251.499 191.964 251.069C190.35 250.343 189.117 249.097 187.862 247.94C185.351 245.628 183.288 242.931 181.248 240.21C180.845 239.666 180.351 239.145 179.634 239.281C178.916 239.417 179.073 240.074 179.096 240.619C181.741 245.22 184.88 249.437 188.646 253.177C189.207 253.744 189.969 254.174 190.126 255.013C190.238 255.693 191.404 256.192 190.709 256.849C190.171 257.37 189.655 256.305 189.028 256.192C188.377 256.033 187.974 255.512 187.57 255.058C183.781 250.865 179.746 246.898 176.899 241.956C176.697 241.593 176.428 241.435 175.935 241.435C175.24 241.435 175.329 241.933 175.172 242.296C175.329 243.543 175.598 244.79 176.271 245.832C178.558 249.346 181.001 252.769 184.454 255.285C184.902 255.602 185.059 255.942 185.104 256.532C183.983 256.464 183.042 256.373 182.235 255.693C181.226 255.489 180.441 254.9 179.679 254.288C177.459 252.497 175.621 250.366 173.917 248.076C170.711 243.747 168.962 238.714 166.989 233.773C166.563 232.685 165.958 231.642 165.981 230.418C165.981 229.33 165.891 228.287 165.286 227.358C164.86 226.677 164.478 225.952 164.008 225.295C163.156 224.093 163.156 223.685 164.344 222.756C167.438 220.353 171.047 219.152 174.746 218.086C175.486 217.882 175.845 218.426 176.316 218.857C176.921 219.401 176.159 219.628 176.092 219.968C175.957 220.602 175.329 221.373 175.733 221.872C176.562 222.892 176.944 224.139 177.863 225.113C182.19 229.67 187.727 232.73 192.099 237.196C192.973 238.102 193.691 239.009 194.072 240.142C194.408 241.185 193.803 241.752 192.547 241.661C191.964 241.661 191.583 241.276 191.135 240.981C189.454 239.848 188.064 238.374 186.629 236.969C185.575 235.926 184.432 234.951 182.862 234.815C182.571 235.382 182.907 235.949 182.907 236.516L182.817 236.493ZM29.4246 59.226C29.1331 59.294 28.9986 59.1353 28.8865 58.886C27.4069 57.7526 26.0393 56.5285 25.3667 54.715C25.1201 54.0803 25.008 53.3776 25.7254 53.0602C26.4204 52.7428 27.2499 52.6522 27.7431 53.4909C28.9762 55.6444 30.6801 57.3445 32.4512 59.022C32.653 59.1127 32.8548 59.1807 33.0565 59.2713C34.0206 59.6567 33.7739 60.4728 33.5273 61.0848C33.2359 61.8102 32.5857 61.3568 32.1598 61.1755C31.106 60.7221 30.0748 60.2007 29.4022 59.2033L29.4246 59.226ZM168.267 247.419C165.644 245.651 164.591 243.18 164.994 240.052C164.725 239.508 164.86 239.009 165.196 238.397C166.496 241.435 167.953 244.245 169.5 246.988C169.725 247.374 170.151 247.827 169.747 248.167C169.299 248.552 168.895 248.031 168.559 247.714C168.469 247.623 168.357 247.532 168.267 247.442V247.419ZM34.2672 53.7629C34.8052 53.6496 35.0967 53.9216 35.2088 54.443C35.4106 55.327 35.6572 56.1884 35.8365 57.0725C35.9038 57.4125 36.0383 57.8432 35.702 58.0926C35.3657 58.3419 35.0294 58.0246 34.738 57.8432C32.9444 56.7778 31.4423 55.3497 30.142 53.7403C29.3798 52.7882 28.483 51.8361 28.3036 50.4987C27.6535 48.7985 28.214 47.8011 30.0748 47.5291C29.4919 50.1813 30.8594 51.7228 32.9893 52.8562C33.348 53.0375 33.6618 53.3096 33.9757 53.5362C34.1551 53.5136 34.2672 53.5589 34.2672 53.7629ZM23.8646 26.1982C24.0888 24.8834 24.9856 25.4048 25.6133 25.6541C27.3172 26.3342 28.3933 27.7396 29.4022 29.2131C32.3391 33.5654 34.1327 38.5524 36.5764 43.1768C37.0023 43.9702 36.5315 44.0155 35.9262 43.9022C34.9173 44.0835 33.8412 43.7888 32.8772 44.2195C32.4512 44.4009 32.3391 44.1742 32.1822 43.8568C29.7833 39.2551 27.3172 34.6988 24.6941 30.2105C23.9767 28.9864 23.5956 27.6263 23.887 26.1755L23.8646 26.1982ZM46.0821 44.1515C44.3334 43.5621 42.4726 43.9702 40.6791 43.6528C42.5847 41.1366 43.4591 38.2804 44.1989 35.3562C44.6921 33.4294 44.9836 31.4572 45.7683 29.6211C46.4857 27.9663 47.2928 26.3115 49.3329 25.9261C50.9471 25.5181 51.2162 25.6768 51.2386 27.2636C51.3058 32.976 49.9158 38.3711 47.7188 43.5848C47.36 44.4235 46.8668 44.7182 46.0821 44.1515ZM47.2479 48.5265C49.871 49.7279 51.3282 52.0401 52.651 54.4656C52.8079 54.7603 52.6958 55.0777 52.651 55.3951C52.382 57.0272 51.7318 58.5233 50.7902 59.8607C48.2568 63.465 47.5394 67.4093 48.5482 71.6936C48.8397 72.9404 49.4675 73.8018 50.7453 74.1191C51.0144 74.1871 51.261 74.3005 51.5076 74.3912C52.5165 74.7992 52.494 75.3659 51.8439 76.1366C51.2386 76.8394 50.3418 76.9074 49.602 77.3154C46.5978 78.9248 43.3918 79.8316 40.0065 80.0809C38.3026 80.2169 38.1906 80.0809 38.3251 78.2901C38.4371 77.0887 38.9752 75.978 38.6613 74.7085C38.2578 73.0311 37.092 72.0563 35.8814 71.0816C33.9085 69.4721 31.801 67.9987 30.4559 65.7545C30.0075 65.0065 29.4246 64.2811 29.7833 63.3063L29.7161 63.5103C29.7161 63.5103 29.6264 63.465 29.5815 63.4423C29.6488 63.397 29.7161 63.3517 29.7833 63.3063C30.7698 64.1224 31.9356 64.3717 33.1462 64.4851C35.276 64.6891 36.4643 63.193 35.7693 61.1755C35.5675 60.6088 35.5451 60.4048 36.1952 60.2688C37.6077 59.9741 38.0112 58.886 37.9215 57.6166C37.8767 56.7552 37.6973 55.9164 37.5404 55.0777C37.3835 54.2163 37.8767 53.6042 38.7286 53.8083C39.3115 53.9443 39.872 53.9896 40.4325 54.0349C42.0018 54.171 42.6296 55.2364 42.1139 56.7552C41.7776 57.6846 41.4638 58.614 41.5983 59.634C41.7328 60.5634 42.1139 60.8355 42.8986 60.2461C43.0107 60.1101 43.1228 59.9741 43.2125 59.8154C44.2438 58.1379 45.2302 56.3471 44.2662 54.3976C43.3694 52.5388 41.4638 52.4028 39.6478 52.2895C38.0112 52.1988 36.3522 52.0628 34.7828 51.5414C32.9668 50.952 32.227 49.932 32.3615 48.2318C32.496 47.5745 33.0789 47.5971 33.5273 47.5291C36.9126 47.0757 40.298 46.4864 43.7505 46.8491C45.0284 46.9851 46.0821 47.3024 46.9789 48.2092C47.1583 48.2318 47.2928 48.2998 47.2704 48.5265H47.2479ZM143.83 255.738C144.391 255.625 144.974 255.557 145.512 255.421C146.095 255.262 146.207 255.421 146.117 256.01C145.579 259.751 145.938 263.468 146.229 267.231C146.61 271.946 148.135 276.072 151.453 279.517C154.166 282.328 156.138 285.774 158.694 288.744C160.107 290.376 160.151 290.33 158.582 292.076C157.797 293.753 156.183 294.365 154.704 295.204C154.569 294.66 154.771 294.003 154.255 293.776C152.708 293.141 152.193 291.577 151.273 290.398C149.166 287.701 147.103 284.981 144.951 282.306C143.539 280.538 142.642 278.588 142.149 276.367C140.871 270.79 140.535 265.1 140.109 259.433C139.862 256.101 139.795 256.101 143.158 255.784C143.382 255.784 143.606 255.738 143.83 255.716V255.738ZM46.8892 81.7584C47.8981 81.033 48.4362 81.2144 48.8397 82.4838C49.5571 84.6826 50.4091 86.8361 51.3731 88.9216C54.6911 96.0622 58.7715 102.681 63.7486 108.756C64.1745 109.278 64.6677 109.731 64.3987 110.547C63.771 112.429 63.1881 114.333 62.6052 116.214C62.4482 116.985 62.2913 117.778 61.9998 118.345C53.5478 107.555 46.9341 95.6995 42.3829 82.6198C43.9075 82.3251 45.4096 82.0304 46.8892 81.7357V81.7584ZM170.801 216.205C169.859 216.635 168.85 216.862 167.909 217.406C166.294 218.381 166.25 218.29 165.801 216.477C165.779 216.341 165.689 216.227 165.622 216.114C161.497 205.641 158.829 194.783 157.192 183.653C156.878 181.59 156.901 181.59 159.008 181.25C160.421 180.343 162.08 180.366 163.626 180.071C164.299 179.935 164.165 180.502 164.187 180.887C164.523 184.764 165.106 188.595 166.003 192.38C167.729 199.725 169.411 207.069 171.854 214.21C172.348 215.661 172.123 216.001 170.756 216.25L170.801 216.205ZM89.172 245.9C82.2445 252.973 75.0255 259.728 68.4566 267.163C65.2955 270.722 62.5155 274.485 60.139 278.611C59.1526 280.311 59.175 280.334 57.4936 279.245C57.359 279.155 57.2245 278.996 57.1124 278.883C55.5431 278.021 54.6911 276.525 53.7944 275.052C53.346 274.326 53.4357 273.85 53.9065 273.148C56.5519 269.294 59.8924 266.052 62.8069 262.448C70.0932 253.358 77.8951 244.744 86.0557 236.448C86.4144 236.085 86.5938 235.972 86.9973 236.357C88.6564 237.876 90.3378 239.349 92.0193 240.845C92.7143 241.095 93.2523 241.752 92.647 242.205L89.172 245.923V245.9ZM174.433 295.431C175.621 297.131 176.809 298.559 178.378 299.579C179.185 300.1 179.096 300.486 178.446 301.075C176.607 302.798 174.814 304.566 173.02 306.334C167.46 311.865 161.855 317.328 155.376 321.771C152.888 323.494 152.91 323.517 151.542 320.751C151.542 320.706 151.542 320.661 151.542 320.615C150.713 318.167 149.928 315.742 150.511 313.089C150.803 311.797 150.265 311.231 148.919 311.299C147.574 311.367 146.229 311.503 144.906 311.525C143.875 311.525 143.292 311.933 142.866 312.931C142.149 314.654 140.893 315.787 138.92 315.991C135.558 316.354 132.217 316.195 128.854 316.082C127.554 316.036 126.298 315.651 125.155 314.948C124.886 314.789 124.415 314.676 124.796 314.155C125.536 313.135 127.307 312.772 128.383 313.475C128.764 313.724 129.168 313.905 129.616 313.973C131.634 314.268 133.652 314.2 135.625 313.792C144.01 312.115 150.152 307.06 154.995 300.236C155.847 299.035 156.766 298.151 157.977 297.358C162.461 294.388 164.792 289.945 165.913 284.754C165.846 283.847 166.025 282.895 165.599 282.079C165.196 281.286 165.286 280.492 165.375 279.699C165.442 279.223 165.465 278.543 166.115 278.588C166.586 278.611 166.406 279.245 166.519 279.608C167.617 283.892 168.424 288.313 171.675 291.622L174.41 295.363L174.433 295.431ZM63.9951 292.461C62.4258 294.433 60.7892 296.36 59.1974 298.332C58.8163 298.808 58.4576 298.786 57.9195 298.559C52.8528 296.541 48.3913 293.617 44.5352 289.696C39.7375 284.822 34.8501 280.016 29.4022 275.868C27.1827 274.19 27.1603 274.236 28.1915 271.538C28.8193 267.889 29.4246 264.216 30.0748 260.567C30.2093 259.819 30.0748 259.229 29.4695 258.753C28.7969 258.232 28.1467 257.665 27.4293 257.212C25.972 256.282 25.5461 256.418 24.8062 257.96C24.2009 259.229 23.2817 259.569 22.0487 258.889C21.3761 258.527 20.7259 258.096 20.1879 257.574C17.6321 255.149 15.4798 252.361 13.5069 249.437C12.9464 248.62 12.498 247.714 12.498 246.671C12.498 246.24 12.4308 245.628 12.924 245.492C13.3051 245.402 13.888 245.515 14.1795 245.764C14.5606 246.082 15.0763 246.444 15.278 246.807C17.5872 250.819 21.2416 253.154 25.277 254.877C33.1462 258.277 40.5446 262.63 48.2792 266.302C48.5931 266.461 49.0639 266.574 48.9742 267.005C48.7724 267.889 49.1984 268.659 49.3329 269.475C49.8262 272.808 51.0144 275.845 53.077 278.52C56.2381 282.6 62.2689 284.301 66.6182 282.442C66.9769 282.283 67.3805 281.626 67.8737 282.283C68.3221 282.85 67.9409 283.28 67.6495 283.734C68.7032 283.62 69.3309 284.323 68.9498 285.139C68.21 286.703 67.3132 288.177 66.1698 289.514C65.5869 290.217 64.5108 291.713 63.9503 292.416L63.9951 292.461ZM174.388 214.777C174.208 214.482 173.984 214.233 173.895 213.847C171.765 205.437 169.366 197.118 167.527 188.64C167.124 186.758 166.653 184.832 166.676 182.678C167.617 183.245 168.402 183.676 169.276 183.88C170.532 184.197 171.675 183.993 172.684 183.177C173.939 182.157 174.791 180.91 175.128 179.278C175.823 175.991 175.778 172.84 174.343 169.734C171.07 162.662 168.133 155.476 168.29 147.429C168.29 147.225 168.357 146.93 168.088 146.839C167.752 146.726 167.617 147.043 167.483 147.247C167.034 148.018 167.057 148.902 166.9 149.741C166.81 154.728 168.133 159.398 169.926 163.954C170.89 166.402 171.922 168.782 172.975 171.185C174.231 174.041 174.029 176.92 173.267 179.822C173.02 180.774 172.527 180.955 171.742 180.207C170.733 179.255 169.5 178.711 168.2 178.348C166.429 177.872 164.725 177.714 162.819 178.031C160.084 178.507 157.439 179.391 154.726 179.913C153.471 180.162 152.35 180.502 151.117 179.935C150.758 179.777 150.489 179.867 150.691 179.301C151.363 177.464 150.803 175.764 149.973 174.109C149.502 173.203 149.032 172.273 148.807 171.231C148.606 171.072 148.673 170.687 148.314 170.641C147.955 171.208 148.135 171.865 148.09 172.477C147.978 174.064 147.619 175.606 146.991 177.056C145.893 179.641 144.211 179.799 141.7 179.142C139.615 178.598 138.091 174.948 138.494 172.296C138.898 169.621 139.481 166.969 139.638 164.249C139.795 161.256 139.66 158.355 137.912 155.771C137.62 155.317 137.261 154.728 136.656 155C135.939 155.317 136.365 155.952 136.544 156.405C137.351 158.559 137.62 160.758 137.598 163.047C137.598 166.47 136.589 169.757 136.32 173.135C136.253 173.883 135.983 174.381 135.445 174.857C132.195 177.646 128.832 180.253 125.222 182.565C124.572 182.973 123.922 183.381 123.317 183.834C122.644 184.333 122.397 184.945 123.07 185.67C124.438 185.829 125.603 185.194 126.724 184.56C129.818 182.791 132.621 180.638 135.356 178.394C136.678 177.306 136.678 177.328 137.104 179.006C137.665 180.434 138.853 181.454 139.638 182.746C139.974 183.29 140.535 183.562 141.162 183.789C142.552 184.265 143.965 184.514 145.4 184.333C147.911 183.993 150.399 184.22 152.865 184.65C153.291 184.718 153.784 184.809 154.188 184.718C154.861 184.582 155.017 184.809 155.107 185.444C156.923 196.483 159.389 207.319 163.716 217.678C163.963 218.29 163.918 218.744 163.559 219.31C162.864 220.444 161.743 221.124 160.914 222.121C159.86 223.391 159.972 224.932 161.071 226.156C161.586 226.723 162.618 226.881 162.618 227.947C162.618 229.171 162.662 230.395 162.685 231.597C162.73 233.433 161.676 234.997 161.407 236.765C160.981 239.802 160.488 242.84 162.237 245.674C162.483 246.082 162.147 246.263 161.855 246.354C158.851 247.374 156.34 249.527 153.134 250.094C151.363 250.411 149.637 250.887 147.866 251.182C143.203 251.998 143.203 251.975 140.602 248.031C134.952 239.44 130.401 230.259 126.747 220.625C123.967 213.28 122.532 205.573 120.738 197.957C118.138 186.94 116.008 175.855 115.134 164.543C114.887 161.324 114.775 158.038 113.766 154.887C113.183 154.229 112.735 154.252 112.421 155.113C112.107 155.975 111.995 156.859 112.017 157.788C112.107 161.234 112.152 164.679 112.331 168.102C112.555 172.613 112.623 177.147 113.183 181.658C113.99 188.005 115.627 194.171 116.837 200.427C118.362 208.339 120.043 216.182 123.07 223.708C124.998 228.491 127.307 233.07 129.527 237.717C129.639 237.853 129.773 237.966 129.863 238.125C132.441 242.817 135.311 247.306 138.629 251.477C138.741 251.613 138.831 251.771 138.696 252.066C137.956 252.066 137.149 252.066 136.365 252.066C131.612 251.953 126.881 251.431 122.196 250.593C108.766 248.167 97.3775 241.752 87.7148 232.163C81.1683 225.657 76.0343 218.063 71.9092 209.79C63.0311 191.949 59.7803 172.931 60.5874 153.141C61.3945 133.057 66.2371 113.925 74.2184 95.5861C81.953 77.8368 92.4452 61.9009 105.628 47.8238C121.613 30.7545 140.31 17.8108 162.438 10.2396C179.073 4.54983 196.045 2.66836 213.442 6.04595C215.976 6.54465 218.509 7.06603 221.244 7.97276C220.908 8.17678 220.796 8.24478 220.684 8.29012C216.558 10.0583 212.971 12.6878 209.474 15.476C206.066 18.1735 202.389 20.5764 199.789 24.226C192.547 34.4041 189.095 45.8743 188.489 58.2739C187.75 73.1444 190.395 87.5162 195.283 101.48C198.152 109.686 201.134 117.846 204.228 125.939C208.6 137.455 211.985 149.174 213.173 161.506C213.487 164.861 214.339 168.193 214.451 171.593C214.675 179.618 213.016 187.348 210.842 195.078C206.985 208.792 198.847 219.197 187.57 227.358C187.099 227.698 186.696 228.128 186.068 227.562C184.006 225.748 181.876 224.003 179.813 222.189C179.23 221.668 178.827 221.033 179.23 220.149C180.284 217.791 178.109 214.822 175.576 214.913C175.172 214.913 174.679 215.207 174.343 214.731L174.388 214.777ZM150.623 325.058C148.919 326.078 147.373 326.668 145.579 326.532C144.951 326.486 144.323 326.486 143.718 326.6C140.109 327.302 136.454 327.711 132.778 327.733C129.482 327.756 126.276 327.302 123.205 325.988C122.039 325.489 120.783 324.786 120.873 323.472C121.075 320.683 121.456 317.872 123.496 315.651C125.065 317.192 127.016 317.895 129.101 318.008C132.352 318.19 135.602 318.575 138.898 318.167C141.521 317.85 143.427 316.603 144.727 314.336C145.086 313.701 147.373 313.112 147.955 313.52C148.18 313.679 148.135 313.905 148.112 314.132C147.911 315.968 148.381 317.736 148.628 319.527C148.897 321.454 148.763 323.562 150.623 325.081V325.058ZM18.6858 247.85C20.4793 248.144 21.9141 248.371 23.2593 248.938C31.7562 252.406 40.0513 256.328 47.9429 261.133C49.1312 261.859 49.5123 262.516 49.2433 263.899C49.0191 265.1 48.7725 265.123 47.8084 264.579C42.4278 261.541 37.2489 258.164 31.5768 255.648C29.1107 254.56 26.667 253.472 24.2233 252.315C22.1608 251.318 20.4121 249.89 18.6858 247.85ZM128.787 312.069C131.903 310.913 135.064 310.007 138.315 309.417C140.221 309.077 142.082 308.488 143.584 307.286C146.05 305.314 148.023 302.843 149.637 300.1C149.816 299.806 149.839 299.307 150.265 299.284C151.363 299.239 152.327 298.65 153.381 298.491C153.717 298.446 154.121 298.242 154.367 298.604C154.659 299.058 154.278 299.352 154.031 299.67C151.184 303.07 148.112 306.221 144.458 308.76C141.566 310.755 138.405 312.069 134.952 312.523C132.912 312.795 130.805 312.931 128.787 312.069ZM74.308 281.512C74.6892 281.58 75.2272 281.558 75.3393 281.988C75.4738 282.532 74.8909 282.6 74.5546 282.691C73.613 282.986 72.649 283.212 71.7074 283.462C71.3935 283.552 71.1917 283.416 71.0572 283.122C70.9675 282.94 70.9676 282.759 71.1918 282.691C72.223 282.283 73.1646 281.603 74.3304 281.512H74.308ZM150.713 297.584C151.43 296.564 151.924 295.476 152.865 294.615C153.336 297.38 153.852 296.995 150.713 297.584Z" fill="#151414"/>
<path d="M163.94 108.44C164.164 109.551 164.837 109.393 165.532 108.962C166.249 108.486 166.743 107.76 167.213 107.035C169.097 104.224 170.756 101.277 172.101 98.149C172.325 97.6276 172.572 97.0836 172.93 96.3355C173.737 98.1717 174.298 99.8491 175.127 101.413C178.244 107.375 181.584 113.201 184.857 119.072C186.987 122.88 188.938 126.825 189.902 131.154C190.328 133.081 190.283 134.94 188.736 136.572C187.144 138.249 187.099 140.471 187.234 142.692C187.481 146.909 188.355 150.989 189.252 155.092C189.947 158.311 190.485 161.553 190.126 164.885C190.014 165.814 190.148 166.789 190.171 167.718C191.875 165.27 193.22 162.618 194.722 160.056C195.17 159.286 195.686 158.538 196.202 157.79C196.403 157.518 196.628 157.064 197.009 157.223C197.502 157.45 197.21 157.926 197.143 158.311C196.964 159.399 196.516 160.374 196.045 161.349C193.982 165.565 191.651 169.645 189.296 173.703C185.44 180.39 180.912 186.533 175.127 191.656C174.343 192.359 173.513 192.926 172.392 192.88C172.504 194.286 173.401 193.9 174.096 193.56C176.114 192.563 177.863 191.135 179.567 189.639C183.445 186.261 186.561 182.249 189.14 177.806C189.296 177.556 189.341 177.194 189.857 177.058C189.857 179.257 189.409 181.365 188.983 183.45C186.629 194.671 181.472 204.6 175.105 213.962C174.903 214.257 174.634 214.506 174.388 214.778C174.724 215.254 175.217 214.982 175.621 214.959C178.154 214.891 180.329 217.838 179.275 220.196C178.872 221.08 179.275 221.714 179.858 222.236C181.921 224.049 184.028 225.795 186.113 227.608C186.763 228.175 187.144 227.744 187.615 227.404C198.892 219.244 207.053 208.839 210.886 195.124C213.061 187.417 214.72 179.687 214.496 171.64C214.406 168.262 213.554 164.93 213.218 161.553C212.03 149.221 208.667 137.479 204.273 125.986C201.179 117.871 198.197 109.71 195.327 101.527C190.44 87.5629 187.794 73.1684 188.534 58.3206C189.14 45.9437 192.592 34.4508 199.834 24.2727C202.434 20.6231 206.089 18.2202 209.519 15.5227C213.016 12.7572 216.581 10.105 220.728 8.33683C220.84 8.29149 220.953 8.22348 221.289 8.01947C218.531 7.11273 215.998 6.59136 213.487 6.09265C196.112 2.71506 179.141 4.59654 162.483 10.2863C140.355 17.8576 121.657 30.7785 105.673 47.8705C92.49 61.9476 81.9977 77.8835 74.2631 95.6328C66.2818 113.972 61.4392 133.104 60.6321 153.188C59.8475 173 63.0759 192.019 71.9539 209.836C76.079 218.11 81.2131 225.704 87.7595 232.21C97.4222 241.799 108.789 248.214 122.24 250.639C126.926 251.478 131.634 252.022 136.409 252.113C137.216 252.113 138.001 252.113 138.741 252.113C138.875 251.818 138.786 251.659 138.674 251.523C135.356 247.352 132.486 242.864 129.908 238.172C129.818 238.013 129.684 237.9 129.571 237.764C129.616 239.214 129.863 240.643 129.684 242.093C129.571 243.045 129.213 243.317 128.249 243.363C116.344 243.952 106.188 239.668 96.9962 232.346C90.5395 227.223 85.4727 220.876 80.2939 214.551C77.0207 210.539 74.689 206.096 72.6489 201.381C70.1155 195.487 67.4924 189.639 65.9455 183.36C64.5779 177.738 64.0847 172.025 63.6139 166.29C62.3584 150.785 65.2057 135.847 69.5775 121.089C71.102 115.921 72.2229 110.662 73.9268 105.539C77.895 93.6607 83.6119 82.6438 90.6516 72.3524C98.1845 61.3355 106.614 51.0441 116.254 41.818C126.881 31.6399 138.36 22.6406 151.677 16.2708C160.689 11.9638 170.218 9.3569 180.037 7.77012C187.279 6.59136 194.543 6.04732 201.874 6.45535C206.201 6.68203 210.55 6.95405 214.787 8.04214C214.989 8.08747 215.191 8.17815 215.796 8.38216C214.72 8.69952 214.003 8.94887 213.285 9.13022C212.5 9.33423 211.716 9.47024 210.931 9.62892C206.044 10.581 201.268 11.9411 196.672 13.9133C194.139 15.0013 192.368 16.9735 190.866 19.2177C187.368 24.4087 185.418 30.1665 184.409 36.3323C183.669 40.8886 182.862 45.4223 181.965 49.956C181.495 52.3362 180.463 54.399 178.692 56.1898C176.204 58.7287 175.464 62.1743 174.724 65.5292C173.424 71.423 173.603 77.3848 173.648 83.3692C174.455 83.3692 174.186 82.5758 174.5 82.1905C174.993 81.5784 175.509 80.377 176.114 80.649C176.876 81.0117 176.271 82.1225 175.979 82.8252C174.971 85.2507 173.894 87.6309 172.818 89.9884C170.195 95.7235 167.976 101.663 165.151 107.307C164.904 107.806 164.837 108.622 163.918 108.418L163.94 108.44Z" fill="#59BAA1"/>
<path d="M162.685 231.642C158.806 234.906 154.12 235.767 149.323 236.221C146.61 236.47 144.166 235.405 141.812 234.09C137.799 231.868 135.4 228.242 133.271 224.388C132.822 223.572 131.836 222.688 132.082 221.894C132.351 221.078 133.696 221.26 134.571 220.942C139.615 219.016 144.166 216.273 148.247 212.714C148.942 212.102 149.637 211.399 149.659 210.356C148.673 211.059 147.709 211.784 146.722 212.487C142.373 215.593 137.934 218.562 132.889 220.466C132.06 220.784 131.186 221.078 130.289 221.033C129.347 220.988 129.033 220.33 129.571 219.56C129.751 219.31 129.975 219.084 130.199 218.857C128.652 215.185 126.971 211.603 125.558 207.885C122.487 199.838 120.85 191.473 119.617 182.995C118.698 176.807 118.407 170.573 117.712 164.362C117.42 161.755 117.017 159.148 115.828 156.768C115.402 155.952 114.999 155.023 113.855 154.977C114.864 158.106 114.976 161.392 115.223 164.634C116.075 175.946 118.205 187.03 120.828 198.047C122.621 205.664 124.056 213.348 126.836 220.716C130.491 230.35 135.042 239.508 140.691 248.122C143.27 252.066 143.292 252.066 147.955 251.273C149.726 250.978 151.453 250.479 153.224 250.185C156.43 249.618 158.941 247.464 161.945 246.444C162.236 246.354 162.573 246.172 162.326 245.764C160.577 242.931 161.07 239.893 161.496 236.856C161.743 235.087 162.797 233.523 162.774 231.687L162.685 231.642Z" fill="#59BAA1"/>
<path d="M92.0417 240.847C89.3738 242.91 87.0198 245.358 84.5536 247.625C78.4556 253.224 72.6938 259.209 66.9096 265.171C62.9863 269.228 59.6234 273.739 57.1348 278.885C57.2693 278.998 57.3814 279.157 57.516 279.248C59.175 280.336 59.175 280.313 60.1614 278.613C62.5379 274.51 65.3403 270.747 68.479 267.165C75.0478 259.73 82.2669 252.975 89.1944 245.902C89.9567 245.109 90.3826 244.746 91.257 243.794C91.8847 243.092 92.378 242.661 92.8039 242.23C93.4093 241.777 92.7591 241.097 92.0641 240.847H92.0417Z" fill="#59BAA1"/>
<path d="M143.83 255.74C143.538 258.029 143.292 260.319 142.933 262.586C142.059 268.298 144.032 273.195 147.148 277.751C150.287 282.353 153.717 286.705 157.304 290.944C157.685 291.397 158.021 291.873 158.604 292.077C160.151 290.332 160.106 290.377 158.716 288.745C156.16 285.798 154.188 282.33 151.475 279.519C148.157 276.074 146.632 271.971 146.251 267.233C145.96 263.493 145.601 259.752 146.139 256.012C146.229 255.423 146.094 255.264 145.534 255.423C144.973 255.559 144.413 255.649 143.852 255.74H143.83Z" fill="#59BAA1"/>
<path d="M47.2478 48.5067C47.3599 49.5041 48.167 50.0482 48.7499 50.6602C50.7676 52.7684 50.8573 55.3299 49.7588 57.5967C48.0101 61.1103 47.3375 64.8053 47.046 68.5682C46.5976 74.1673 43.1002 76.7742 38.3473 78.3157C38.2128 80.0838 38.3249 80.2198 40.0288 80.1065C43.4141 79.8571 46.6201 78.9504 49.6242 77.3409C50.3641 76.9556 51.2609 76.8875 51.8662 76.1622C52.5388 75.3688 52.5388 74.8247 51.5299 74.4167C51.2833 74.3034 51.0367 74.19 50.7676 74.1447C49.5122 73.8273 48.862 72.9659 48.5705 71.7192C47.5617 67.4348 48.2791 63.4905 50.8125 59.8863C51.7541 58.5488 52.3818 57.0527 52.6733 55.4206C52.7181 55.1032 52.8526 54.8085 52.6733 54.4912C51.3505 52.0657 49.8933 49.7535 47.2702 48.5521L47.2478 48.5067Z" fill="#59BAA1"/>
<path d="M166.9 149.789C166.025 152.101 166.272 154.504 166.519 156.884C167.034 161.893 168.76 166.541 170.532 171.188C171.07 172.57 171.653 173.953 171.899 175.427C171.989 175.903 172.056 176.424 171.989 176.9C171.832 178.351 171.271 178.736 169.926 178.215C166.339 176.855 162.707 176.152 158.874 176.923C157.461 177.217 156.138 177.761 154.816 178.283C152.932 179.031 152.663 178.872 152.058 176.923C151.408 174.792 150.758 172.684 148.852 171.301C149.054 172.321 149.547 173.25 150.018 174.18C150.847 175.835 151.408 177.535 150.735 179.371C150.534 179.938 150.803 179.87 151.161 180.006C152.394 180.55 153.515 180.232 154.771 179.983C157.484 179.439 160.107 178.555 162.864 178.101C164.747 177.784 166.474 177.943 168.245 178.419C169.568 178.759 170.801 179.325 171.787 180.278C172.572 181.003 173.065 180.844 173.312 179.892C174.074 176.991 174.276 174.112 173.02 171.256C171.966 168.853 170.913 166.45 169.971 164.024C168.178 159.468 166.855 154.776 166.944 149.811L166.9 149.789Z" fill="#59BAA1"/>
<path d="M165.263 227.338C165.263 225.192 166.34 224.089 168.492 224.029C169.523 224.006 170.554 223.915 171.586 223.983C173.895 224.119 175.957 224.913 177.661 226.545C181.697 230.421 186.427 233.436 190.53 237.222C191.18 237.834 192.167 237.879 192.705 238.741C193.355 239.806 193.691 240.758 192.525 241.687C193.781 241.778 194.409 241.211 194.05 240.169C193.669 239.013 192.974 238.129 192.077 237.222C187.683 232.756 182.145 229.673 177.841 225.14C176.921 224.165 176.518 222.918 175.711 221.898C175.307 221.377 175.935 220.629 176.07 219.994C176.137 219.631 176.899 219.427 176.294 218.883C175.823 218.452 175.464 217.908 174.724 218.112C171.048 219.155 167.416 220.379 164.322 222.782C163.156 223.689 163.134 224.119 163.986 225.321C164.456 225.978 164.837 226.681 165.263 227.384V227.338Z" fill="#59BAA1"/>
<path d="M159.053 181.253C162.976 187.373 165.173 194.197 167.034 201.133C168.267 205.712 169.299 210.337 170.42 214.938C170.532 215.369 170.689 215.8 170.823 216.23C172.191 215.981 172.415 215.641 171.922 214.19C169.478 207.05 167.774 199.705 166.07 192.361C165.173 188.575 164.591 184.744 164.254 180.868C164.232 180.505 164.344 179.938 163.694 180.052C162.124 180.369 160.488 180.324 159.075 181.23L159.053 181.253Z" fill="#59BAA1"/>
<path d="M46.8892 81.7579C46.9565 83.2766 47.517 84.6594 48.0999 86.0422C51.4852 93.7721 55.6776 101.026 60.6995 107.804C62.2016 109.844 62.5603 112.27 62.5827 114.763C62.5827 115.262 62.5827 115.76 62.5827 116.259C63.1881 114.378 63.7485 112.474 64.3763 110.592C64.6453 109.776 64.1521 109.323 63.7261 108.801C58.749 102.726 54.6687 96.0843 51.3507 88.9664C50.3866 86.8809 49.5347 84.7274 48.8173 82.5286C48.3913 81.2365 47.8757 81.0551 46.8668 81.8032L46.8892 81.7579Z" fill="#59BAA1"/>
<path d="M49.3327 25.9267C48.8844 32.1152 47.8082 38.1903 46.0819 44.1521C46.889 44.7188 47.3823 44.4241 47.7186 43.5854C49.9156 38.3716 51.3056 32.9766 51.2384 27.2641C51.2384 25.6773 50.9469 25.5413 49.3327 25.9267Z" fill="#59BAA1"/>
<path d="M23.8647 26.2011C25.322 26.8812 26.3981 27.9919 27.3845 29.2614C30.882 33.7497 33.4153 38.8274 35.9263 43.9051C36.5092 43.9958 36.98 43.9732 36.5764 43.1798C34.1327 38.5554 32.3616 33.5684 29.4023 29.216C28.4158 27.7426 27.3173 26.3371 25.6134 25.6571C25.0081 25.4077 24.0889 24.8864 23.8647 26.2011Z" fill="#59BAA1"/>
<path d="M42.8987 60.2461C44.7595 60.1781 46.4634 57.5712 45.9926 55.4177C45.6114 53.6723 44.625 52.4028 42.8987 51.8135C41.3294 51.2921 39.6927 50.9294 38.0561 50.8387C35.8142 50.7027 33.8862 49.932 32.3616 48.2545C32.2495 49.9546 32.9894 50.9747 34.7829 51.5641C36.3747 52.0628 38.0113 52.1988 39.6479 52.3122C41.4639 52.4255 43.3695 52.5615 44.2663 54.4203C45.2303 56.3925 44.2439 58.1606 43.2126 59.8381C43.1229 59.9967 43.0108 60.1328 42.8987 60.2688V60.2461Z" fill="#59BAA1"/>
<path d="M123.048 185.715C123.093 186.849 123.9 186.849 124.662 186.758C125.783 186.622 126.769 186.078 127.756 185.579C131.141 183.811 134.056 181.363 137.06 179.051C136.656 177.373 136.634 177.373 135.311 178.439C132.554 180.683 129.751 182.837 126.68 184.605C125.559 185.239 124.393 185.874 123.025 185.715H123.048Z" fill="#59BAA1"/>
<path d="M179.096 240.599C178.132 240.939 178.558 241.619 178.782 242.141C179.477 243.705 180.374 245.155 181.54 246.448C183.871 249.009 186.405 251.389 188.31 254.314C188.692 254.88 189.095 255.424 189.028 256.172C189.656 256.263 190.149 257.351 190.709 256.83C191.382 256.172 190.238 255.674 190.126 254.994C189.992 254.155 189.23 253.701 188.647 253.157C184.88 249.44 181.742 245.223 179.096 240.599Z" fill="#59BAA1"/>
<path d="M13.8882 253.882C14.5159 255.605 15.9059 256.784 16.9148 258.234C17.2735 258.756 17.7219 259.209 18.103 259.685C19.6499 261.567 21.6004 262.201 23.9545 261.725C24.6495 261.589 25.3669 261.544 26.0843 261.521C27.0707 261.453 27.7882 261.861 28.0796 262.881C28.259 262.133 28.4832 261.408 28.5728 260.637C28.7074 259.39 27.4743 259.549 26.8465 259.073C26.1964 258.574 26.174 259.368 25.9946 259.685C24.9633 261.544 23.0801 261.929 21.0399 260.683C18.7532 259.277 17.0717 257.192 15.3006 255.197C14.8746 254.721 14.628 254.018 13.8882 253.859V253.882Z" fill="#59BAA1"/>
<path d="M175.15 242.273C174.365 242.749 174.814 243.384 174.993 243.928C176.136 247.555 178.334 250.57 180.62 253.516C181.158 254.219 181.876 254.809 182.212 255.67C183.019 256.327 183.961 256.441 185.082 256.509C185.015 255.919 184.858 255.579 184.432 255.262C180.979 252.746 178.558 249.345 176.249 245.809C175.554 244.744 175.307 243.52 175.15 242.273Z" fill="#59BAA1"/>
<path d="M183.266 237.06C183.49 238.329 184.32 239.214 185.172 240.075C187.122 242.07 189.117 243.997 191.045 245.991C191.628 246.603 192.099 247.329 192.547 248.054C193.355 249.392 193.198 250.004 191.987 251.046C192.077 251.477 192.368 251.477 192.704 251.386C193.803 251.114 194.386 249.46 194.027 248.372C193.579 247.079 192.682 246.309 191.763 245.447C188.983 242.908 186.315 240.234 183.826 237.355C183.692 237.196 183.535 236.992 183.288 237.015L183.266 237.06Z" fill="#59BAA1"/>
<path d="M34.2448 53.7629C34.2448 53.9896 34.2448 54.1936 34.2896 54.4203C34.3569 54.919 34.9174 55.5311 34.3569 55.8711C33.8861 56.1431 33.4377 55.5084 32.9893 55.2364C31.0388 54.0576 29.9179 52.0401 28.3037 50.5214C28.483 51.8588 29.3574 52.7882 30.1421 53.7629C31.4424 55.3724 32.9445 56.8005 34.738 57.8659C35.0295 58.0473 35.3658 58.3646 35.7021 58.1153C36.0159 57.8659 35.9038 57.4352 35.8366 57.0952C35.6572 56.2111 35.4106 55.3497 35.2088 54.4657C35.0967 53.9443 34.8053 53.6723 34.2672 53.7856L34.2448 53.7629Z" fill="#59BAA1"/>
<path d="M168.559 247.693C168.895 248.011 169.298 248.532 169.747 248.147C170.15 247.807 169.724 247.376 169.5 246.968C167.953 244.225 166.496 241.414 165.196 238.377C164.882 238.989 164.725 239.487 164.994 240.031C165.779 242.321 166.743 244.543 168.133 246.537C168.312 246.787 168.491 247.081 168.267 247.399C168.491 247.331 168.536 247.489 168.559 247.671V247.693Z" fill="#59BAA1"/>
<path d="M7.90207 247.148C8.66433 247.08 9.09027 247.511 9.51623 248.077C10.3009 249.143 10.8614 250.39 11.96 251.183C11.6909 249.46 10.5251 247.987 10.5027 246.173C10.5027 245.629 9.98705 245.811 9.67318 245.992C9.06786 246.355 8.48495 246.74 7.87963 247.125L7.90207 247.148Z" fill="#59BAA1"/>
<path d="M32.4512 59.0217C32.4512 60.0418 32.0252 60.2685 31.1285 59.8605C30.568 59.6111 30.0972 59.1577 29.4246 59.2031C30.0972 60.2005 31.1509 60.7219 32.1822 61.1752C32.6081 61.3566 33.2583 61.8326 33.5497 61.0846C33.7964 60.4725 34.0205 59.6564 33.0789 59.2711C32.8772 59.1804 32.6754 59.1124 32.4736 59.0217H32.4512Z" fill="#59BAA1"/>
<path d="M182.795 234.818C182.167 234.432 181.943 234.727 182.055 235.339C182.145 235.815 182.346 236.268 182.817 236.518C182.817 235.951 182.503 235.384 182.772 234.818H182.795Z" fill="#59BAA1"/>
<path d="M13.3053 253.112C13.3053 253.52 13.4398 253.837 13.9106 253.882C13.9555 253.429 13.7313 253.18 13.3053 253.112Z" fill="#59BAA1"/>
<path d="M12.7223 252.319C12.6775 252.614 12.7896 252.772 13.081 252.84C13.1259 252.568 13.0138 252.387 12.7223 252.319Z" fill="#59BAA1"/>
<path d="M11.9598 251.208C11.8925 251.48 11.9598 251.684 12.2737 251.729C12.3409 251.457 12.2737 251.253 11.9598 251.208Z" fill="#59BAA1"/>
<path d="M29.4246 59.2292C29.3573 58.9345 29.1555 58.8892 28.8865 58.8892C28.9762 59.1385 29.1331 59.2972 29.4246 59.2292Z" fill="#59BAA1"/>
<path d="M7.36383 247.377C7.61045 247.422 7.81222 247.422 7.92432 247.15C7.6777 247.082 7.47593 247.15 7.36383 247.377Z" fill="#59BAA1"/>
<path d="M12.498 252.022C12.498 252.203 12.5429 252.317 12.7447 252.339C12.7671 252.158 12.6998 252.045 12.498 252.022Z" fill="#59BAA1"/>
<path d="M13.0585 252.815C13.0361 253.019 13.1033 253.109 13.3051 253.132C13.3499 252.928 13.2603 252.837 13.0585 252.815Z" fill="#59BAA1"/>
<path d="M46.9563 48.2102C46.9563 48.4142 47.0236 48.5502 47.2478 48.5276C47.2478 48.3009 47.1357 48.2555 46.9563 48.2102Z" fill="#59BAA1"/>
<path d="M182.817 236.518C182.817 236.722 182.884 236.835 183.086 236.858C183.086 236.676 183.019 236.54 182.817 236.518Z" fill="#59BAA1"/>
<path d="M33.9754 53.5373C33.9978 53.696 34.0651 53.832 34.2668 53.764C34.2668 53.56 34.1547 53.5146 33.9754 53.5373Z" fill="#59BAA1"/>
<path d="M12.274 251.703C12.2292 251.907 12.3188 251.998 12.4982 252.021C12.543 251.839 12.4758 251.703 12.274 251.703Z" fill="#59BAA1"/>
<path d="M146.386 89.2189C146.364 85.796 146.229 82.7357 145.579 79.7889C144.794 76.1619 143.225 72.7843 139.884 70.7215C138.786 70.0415 137.441 69.9281 136.14 69.8828C132.15 69.7241 129.056 71.6282 126.186 74.2124C124.236 75.9579 122.532 77.9074 121.075 80.0382C119.303 82.6451 117.801 85.388 116.725 88.4255C115.649 91.5311 114.775 94.7047 113.452 97.7196C113.049 98.6716 112.645 99.6917 112.421 100.734C112.084 102.321 111.322 103.749 110.807 105.245C110.425 106.334 110.381 107.535 110.224 108.691C109.663 112.771 108.856 116.852 109.596 120.955C110.224 124.514 110.425 128.277 112.443 131.427C113.519 133.105 114.797 134.669 116.501 135.848C118.519 137.253 120.514 136.369 122.353 135.689C126.455 134.17 129.19 130.725 132.239 127.801C134.414 125.692 135.961 123.063 137.463 120.456C139.346 117.146 141.431 113.95 142.485 110.187C143.202 107.648 143.785 105.109 144.391 102.548C145.243 99.0343 145.646 95.4981 146.095 91.9618C146.229 90.8964 146.386 89.8763 146.364 89.2189H146.386ZM113.205 119.663C113.25 114.653 113.968 110.981 114.64 107.286C115.403 103.205 116.591 99.2837 117.958 95.4074C118.519 93.7979 119.147 92.2111 119.931 90.715C120.29 90.035 120.94 89.5589 121.994 89.831C123.563 90.239 124.796 91.1684 126.119 92.0071C131.522 95.4754 135.782 99.9411 138.113 106.107C138.472 107.059 138.382 107.943 138.024 108.714C136.342 112.363 134.818 116.126 132.71 119.572C131.5 121.567 130.289 123.562 128.787 125.375C127.464 126.962 126.074 128.481 124.505 129.841C123.003 131.155 121.478 132.334 119.416 132.493C118.474 132.561 117.532 132.425 116.815 131.699C115.447 130.339 114.752 128.617 114.169 126.826C113.295 124.106 113.138 121.272 113.183 119.663H113.205ZM135.288 74.3484C136.297 74.2578 137.329 74.4618 138.046 75.1645C139.862 76.978 140.804 79.3128 141.073 81.8064C141.633 86.8841 141.88 91.9618 140.602 96.9942C140.221 98.4676 140.692 99.9864 140.288 101.437C140.198 101.732 140.198 102.117 139.817 102.185C139.481 102.253 139.414 101.891 139.257 101.687C139.01 101.369 138.741 101.097 138.607 100.712C138.158 99.4197 137.127 98.445 136.208 97.5836C134.437 95.9514 132.845 94.138 130.962 92.5965C128.428 90.5564 126.164 88.1762 122.891 87.3374C122.33 87.2014 122.173 86.8614 122.42 86.34C122.622 85.8867 122.801 85.4333 123.07 85.0253C125.222 82.033 127.352 78.9955 130.267 76.6606C131.746 75.4592 133.271 74.2804 135.333 74.3711L135.288 74.3484Z" fill="#151414"/>
<path d="M88.4098 121.904C91.5037 121.791 93.7456 120.703 95.741 118.55C98.1847 115.943 100.314 113.132 102.198 110.117C103.162 108.575 103.946 106.921 104.709 105.289C105.897 102.682 107.152 100.075 108.116 97.3772C108.811 95.4504 109.686 93.5689 110.134 91.5968C110.919 88.3099 111.973 85.091 112.69 81.7814C113.721 77.089 114.349 72.442 114.237 67.6363C114.17 65.0748 113.318 62.7626 112.286 60.5184C111.502 58.841 109.058 57.9796 106.883 58.1836C104.059 58.4556 102.153 60.3144 100.292 62.0825C97.669 64.5534 95.6064 67.5456 93.9026 70.6965C92.0418 74.0968 90.024 77.429 88.5892 81.1013C87.0647 85.023 85.4057 88.8993 84.1053 92.9116C82.8947 96.6292 81.841 100.369 81.0339 104.223C80.5855 106.422 80.4286 108.643 79.9802 110.82C79.6215 112.565 80.4958 114.379 81.3478 115.965C82.0428 117.28 82.8947 118.527 83.8363 119.66C85.0918 121.134 86.7508 121.882 88.4098 121.882V121.904ZM98.8797 80.3079C101.951 80.3759 104.978 80.784 107.959 81.668C108.767 81.9174 108.789 82.0987 108.677 82.8015C108.206 85.6123 107.018 88.1965 106.278 90.8941C105.807 92.5942 105.135 94.249 104.44 95.8584C103.072 99.1 101.503 102.251 99.8661 105.357C98.8796 107.215 97.826 109.051 96.5705 110.752C95.4271 112.316 94.4406 114.016 93.2748 115.535C91.4589 117.892 89.486 118.867 86.6163 116.623C84.2174 114.741 83.1189 112.225 83.2086 109.165C83.3207 106.082 84.1502 103.112 84.7331 100.097C85.5177 96.1078 86.8629 92.3222 88.096 88.4912C88.6116 86.8591 89.3066 85.2496 89.9792 83.6629C90.6966 81.9627 91.9745 80.9426 93.7905 80.6706C95.4719 80.4213 97.1534 80.2173 98.8348 80.2626L98.8797 80.3079ZM92.8489 78.4718C94.3958 74.8448 96.7274 71.9206 98.79 68.8377C100.18 66.7522 101.682 64.7347 103.902 63.4653C106.659 61.8785 108.341 62.5132 109.417 65.5281C110.941 69.7671 110.605 74.0741 109.551 78.3358C109.058 80.3306 108.879 80.3533 106.973 79.4465C104.126 78.0864 101.099 77.5651 97.9829 77.7011C96.3014 77.7691 94.6424 78.1998 92.8264 78.4718H92.8489Z" fill="#151414"/>
<path d="M184.947 21.2575C185.284 20.7361 185.575 20.2374 184.544 20.3281C183.804 20.3961 183.154 20.6908 182.504 20.9628C178.423 22.731 174.298 24.3858 170.308 26.3352C161.317 30.7556 153.56 36.808 147.417 44.8553C146.767 45.7167 146.252 46.6688 145.893 47.7115C145.624 48.5049 145.826 48.9356 146.7 48.981C149.502 45.2634 152.82 42.0671 156.43 39.1656C163.38 33.5891 170.509 28.3074 178.692 24.6351C180.845 23.6604 182.997 22.6403 184.947 21.2802V21.2575Z" fill="#151414"/>
<path d="M110.134 195.691C110.493 194.965 110.089 194.512 109.573 194.081C106.861 191.769 104.081 189.57 101.48 187.122C92.8934 179.052 85.0018 170.347 78.702 160.283C78.0742 159.285 78.0518 159.285 77.3344 159.535C77.4913 160.487 77.8725 161.348 78.276 162.209C79.4867 164.816 81.2354 167.106 82.6478 169.622C84.8673 173.566 87.8939 176.944 90.8757 180.344C95.7182 185.853 101.009 190.84 107.152 194.829C108.049 195.419 108.968 196.053 110.134 195.691Z" fill="#151414"/>
<path d="M184.947 21.2567C182.997 22.6168 180.845 23.6595 178.692 24.6116C170.532 28.3066 163.402 33.5656 156.43 39.142C152.821 42.0436 149.502 45.2398 146.7 48.9575C147.059 49.6375 147.597 49.3882 148.09 49.2068C148.83 48.9348 149.413 48.4361 149.906 47.824C154.973 41.6356 161.586 37.4646 168.38 33.5656C172.662 31.1174 177.078 28.8959 181.271 26.2891C182.616 25.4503 183.961 24.6116 184.79 23.2062C185.149 22.5941 185.598 21.9367 184.947 21.234V21.2567Z" fill="#59BAA1"/>
<path d="M159.12 117.781C157.954 116.103 157.685 116.103 156.721 117.872C149.883 130.362 141.297 141.447 131.006 151.194C130.311 151.852 129.437 152.441 129.28 153.529C130.132 154.186 130.782 153.642 131.432 153.144C134.683 150.695 137.508 147.771 140.243 144.824C147.327 137.23 153.425 128.843 158.604 119.821C158.985 119.164 159.165 118.506 159.12 117.781Z" fill="#151414"/>
<path d="M165.801 74.4368C166.765 73.6888 166.787 72.6687 166.518 71.6033C165.823 68.8831 164.232 66.6842 162.326 64.7574C159.03 61.4252 155.107 58.9543 151.027 56.7782C149.211 55.8034 147.395 54.8513 145.444 54.194C144.592 53.8993 143.74 53.6273 142.821 53.7179C142.44 53.7406 141.902 53.6046 141.723 54.0353C141.521 54.5113 142.059 54.7153 142.35 54.9647C142.799 55.3274 143.292 55.6447 143.785 55.9848C143.965 55.9621 144.077 56.0074 144.122 56.1888C144.368 56.1661 144.592 56.1888 144.66 56.5061C144.839 56.5061 145.018 56.5061 145.175 56.5741C152.753 60.5638 159.434 65.5508 163.783 73.2127C164.277 74.0741 164.792 74.7089 165.868 74.5048L165.801 74.4368Z" fill="#151414"/>
<path d="M172.37 192.926C173.491 192.994 174.32 192.404 175.105 191.701C180.912 186.578 185.418 180.435 189.274 173.748C191.628 169.69 193.96 165.61 196.022 161.394C196.493 160.419 196.941 159.422 197.121 158.356C197.188 157.971 197.48 157.495 196.986 157.268C196.605 157.11 196.359 157.563 196.179 157.835C195.664 158.583 195.148 159.308 194.7 160.102C193.197 162.663 191.852 165.315 190.148 167.764C186.898 173.521 183.154 178.917 179.118 184.108C177.212 186.556 175.195 188.936 173.02 191.157C172.549 191.633 171.989 192.11 172.37 192.903V192.926Z" fill="#151414"/>
<path d="M116.591 222.302C117.218 221.645 116.994 221.101 116.366 220.602C115.447 219.877 114.394 219.356 113.385 218.789C107.13 215.343 101.054 211.648 95.6511 206.911C94.0593 205.528 92.5796 204.009 91.0551 202.558C90.8758 202.558 90.7412 202.49 90.7412 202.286C89.6203 202.014 89.5082 202.649 89.7548 203.488C90.0238 204.44 90.7188 205.12 91.3466 205.822C97.467 212.623 104.753 217.791 112.959 221.69C114.125 222.234 115.313 222.529 116.613 222.28L116.591 222.302Z" fill="#151414"/>
<path d="M90.0911 149.129C90.8309 148.857 90.8533 148.358 90.5395 147.724C89.8669 146.341 89.3064 144.913 88.5217 143.575C84.0155 135.8 80.518 127.594 77.7829 119.026C77.6708 118.686 77.5363 118.346 77.4018 118.005C77.1327 117.439 76.9085 116.532 76.3256 116.6C75.6082 116.668 75.9221 117.643 75.7203 118.21C76.4377 121.292 77.3569 124.307 78.1416 127.368C80.3163 135.642 84.5984 142.714 90.0687 149.129H90.0911Z" fill="#151414"/>
<path d="M159.12 117.78C159.165 118.528 158.986 119.163 158.605 119.82C153.426 128.865 147.328 137.229 140.243 144.823C137.486 147.77 134.661 150.717 131.432 153.143C130.782 153.641 130.132 154.163 129.28 153.528C128.72 154.299 129.101 154.593 129.841 154.616C130.491 154.639 131.051 154.299 131.612 154.027C134.1 152.803 136.163 151.012 138.181 149.13C146.655 141.264 153.919 132.424 159.187 122.042C159.703 121.044 160.129 119.979 160.421 118.891C160.757 117.689 160.308 117.349 159.12 117.757V117.78Z" fill="#59BAA1"/>
<path d="M110.134 195.689C108.968 196.029 108.049 195.395 107.152 194.828C100.987 190.838 95.6961 185.829 90.8759 180.343C87.8941 176.965 84.89 173.565 82.648 169.621C81.2356 167.127 79.4869 164.838 78.2763 162.208C77.8727 161.347 77.4916 160.485 77.3347 159.533C76.5051 160.463 77.088 161.437 77.3795 162.321C79.0834 167.694 81.8633 172.477 85.4056 176.807C91.5933 184.355 98.5881 190.974 106.951 196.007C107.601 196.392 108.228 196.868 108.968 197.049C110.134 197.321 110.47 196.891 110.112 195.689H110.134Z" fill="#59BAA1"/>
<path d="M163.94 108.442C164.859 108.668 164.927 107.852 165.173 107.331C167.976 101.664 170.195 95.7472 172.841 90.0121C173.917 87.6319 175.015 85.2518 176.002 82.8489C176.293 82.1462 176.899 81.0354 176.136 80.6727C175.531 80.3781 175.015 81.6021 174.522 82.2142C174.208 82.5996 174.477 83.3929 173.67 83.3929C173.76 83.665 173.67 83.8463 173.446 83.9823C170.442 90.1935 167.46 96.4046 164.456 102.638C164.344 102.888 164.232 103.137 164.097 103.364C163.111 104.883 162.909 106.447 163.783 108.079C163.963 108.147 164.03 108.283 163.985 108.464L163.94 108.442Z" fill="#151414"/>
<path d="M130.177 218.86C129.975 219.087 129.729 219.314 129.549 219.563C129.011 220.334 129.325 220.968 130.267 221.037C131.186 221.082 132.038 220.787 132.867 220.47C137.912 218.566 142.351 215.619 146.7 212.491C147.686 211.788 148.65 211.062 149.637 210.36C150.153 209.589 151.408 208.954 150.399 207.866C149.48 206.869 148.561 207.798 147.799 208.342C142.44 212.309 136.768 215.755 130.805 218.747C130.625 218.838 130.379 218.815 130.155 218.838L130.177 218.86Z" fill="#151414"/>
<path d="M165.801 74.4396C164.725 74.6436 164.209 74.0089 163.716 73.1475C159.367 65.5083 152.686 60.4986 145.108 56.5089C144.974 56.4409 144.772 56.4636 144.593 56.4409C145.601 57.801 147.104 58.5718 148.381 59.5918C151.274 61.904 153.246 64.9869 155.376 67.9338C157.013 70.2006 158.717 72.4221 161.071 73.9863C162.55 74.9837 164.097 75.505 165.779 74.417L165.801 74.4396Z" fill="#59BAA1"/>
<path d="M132.89 51.2944C133.675 50.6144 133.249 50.093 132.711 49.5036C130.088 46.5341 126.68 45.2873 122.891 44.7886C120.896 44.5166 118.9 44.2219 116.883 44.5166C115.38 44.7432 114.753 45.4913 115.044 46.6247C115.739 46.7834 116.412 47.0554 117.107 47.1234C121.815 47.5768 126.164 49.3449 130.558 50.9544C131.343 51.2491 132.083 51.4304 132.89 51.3171V51.2944Z" fill="#151414"/>
<path d="M90.0909 149.132C84.6206 142.716 80.3385 135.644 78.1638 127.37C77.3567 124.31 76.4375 121.295 75.7425 118.212C75.182 118.461 75.182 118.983 75.182 119.481C75.1596 120.479 75.182 121.476 75.4287 122.451C77.4016 130.453 80.1815 138.115 84.643 145.097C85.5622 146.547 86.6831 147.84 87.8489 149.109C88.5215 149.857 89.351 150.129 90.1133 149.132H90.0909Z" fill="#59BAA1"/>
<path d="M116.591 222.302C115.313 222.552 114.102 222.28 112.936 221.713C104.731 217.814 97.4447 212.646 91.3243 205.845C90.6965 205.142 90.0015 204.462 89.7325 203.51C89.5083 202.672 89.598 202.037 90.719 202.309C90.4275 201.652 89.9343 201.221 89.2617 201.629C88.6115 202.014 88.7685 202.74 89.0375 203.329C90.0464 205.618 91.526 207.613 93.1402 209.472C98.2742 215.389 104.35 219.9 111.771 222.484C112.824 222.846 113.9 223.209 115.021 223.277C115.739 223.322 116.501 223.345 116.568 222.28L116.591 222.302Z" fill="#59BAA1"/>
<path d="M169.792 139.971C170.061 140.946 170.756 140.788 171.384 140.493C172.258 140.107 172.908 139.427 173.536 138.702C176.652 135.007 178.491 130.587 180.598 126.302C181.427 124.602 182.122 122.834 182.862 121.111C183.064 120.658 183.243 120.182 183.288 119.683C183.355 119.139 183.625 118.368 182.93 118.119C182.324 117.915 182.1 118.64 181.831 119.094C181.427 119.797 181.046 120.499 180.643 121.202C180.082 122.562 179.589 123.968 178.961 125.282C176.966 129.476 174.545 133.42 172.213 137.41C171.608 138.475 170.935 139.45 169.769 139.926L169.792 139.971Z" fill="#59BAA1"/>
<path d="M169.792 139.971C170.957 139.472 171.63 138.497 172.235 137.454C174.545 133.442 176.966 129.498 178.984 125.327C179.611 124.012 180.105 122.607 180.665 121.247C180.665 120.907 180.643 120.544 180.62 120.045C179.701 120.567 179.297 121.383 178.894 122.131C176.114 127.344 173.042 132.377 169.747 137.25C169.254 137.976 169.186 138.747 169.164 139.563C169.164 140.084 169.523 139.948 169.814 139.971H169.792Z" fill="#151414"/>
<path d="M107.758 170.056C108.071 169.353 107.668 168.832 107.354 168.288C106.233 166.474 104.91 164.819 103.475 163.255C100.808 160.376 98.1172 157.52 95.4045 154.687C95.0906 154.369 94.7992 153.666 94.2611 154.074C93.8352 154.414 94.2163 155.004 94.4405 155.435C94.7319 156.001 95.1131 156.5 95.4494 157.044C95.696 157.044 95.7856 157.225 95.9426 157.407C99.0364 161.464 102.265 165.431 105.807 169.126C106.323 169.67 106.906 170.214 107.78 170.033L107.758 170.056Z" fill="#151414"/>
<path d="M159.12 151.803C159.098 152.959 159.322 154.047 159.703 155.136C160.263 156.7 160.846 158.264 161.362 159.873C161.586 160.599 161.99 161.233 162.707 161.12C163.537 160.984 163.469 160.077 163.38 159.443C163.178 158.06 162.998 156.654 162.617 155.317C161.967 153.027 161.765 150.715 161.878 148.335C161.878 147.814 162.012 147.156 161.272 146.998C160.622 146.862 160.353 147.428 160.084 147.904C159.389 149.106 159.187 150.443 159.165 151.826L159.12 151.803Z" fill="#151414"/>
<path d="M132.889 51.2953C132.082 51.4086 131.342 51.2273 130.558 50.9326C126.164 49.3004 121.814 47.555 117.106 47.1016C116.411 47.0336 115.716 46.7843 115.044 46.6029C114.819 48.031 115.873 48.6204 116.815 49.1871C118.945 50.5019 121.388 50.6832 123.765 51.0006C126.455 51.3406 129.213 51.0913 131.836 51.998C132.351 52.1793 132.957 52.1567 132.889 51.2953Z" fill="#59BAA1"/>
<path d="M107.758 170.052C106.883 170.233 106.323 169.689 105.785 169.145C102.243 165.45 99.0367 161.483 95.9204 157.426C95.7859 157.244 95.6962 157.063 95.4271 157.063C95.4271 157.244 95.4271 157.448 95.472 157.584C98.0278 162.662 100.965 167.422 105.897 170.573C106.435 170.913 107.018 171.48 107.691 170.8C107.892 170.596 107.937 170.324 107.758 170.052Z" fill="#59BAA1"/>
<path d="M82.603 194.513C82.603 194.015 82.603 193.516 82.2667 193.108C80.3163 190.773 78.8142 188.098 77.0655 185.605C76.8637 185.31 76.6395 185.015 76.348 184.811C75.5185 184.267 76.1239 185.197 75.8997 185.287C77.3569 187.894 78.8366 190.524 80.2938 193.13C80.8095 194.037 81.4148 194.763 82.603 194.491V194.513Z" fill="#151414"/>
<path d="M82.603 194.513C81.4148 194.785 80.8095 194.06 80.2938 193.153C78.8366 190.546 77.3569 187.916 75.8996 185.31C75.4961 185.718 75.4961 186.194 75.6979 186.692C76.9309 189.957 78.6348 192.949 81.0112 195.51C81.3924 195.918 81.908 196.236 82.4461 195.941C83.0962 195.601 83.1635 195.08 82.603 194.536V194.513Z" fill="#59BAA1"/>
<path d="M73.2322 151.512C73.1425 150.243 72.4251 149.245 71.7525 148.248C71.4162 147.772 71.0799 148.112 71.1024 148.565C71.192 149.925 71.5732 151.217 72.044 152.487C72.1336 152.736 72.4027 152.895 72.7165 152.781C73.3667 152.555 73.2098 152.011 73.2322 151.512Z" fill="#59BAA1"/>
<path d="M173.424 83.9575C173.648 83.8215 173.737 83.6175 173.648 83.3682C173.311 83.4588 173.379 83.7082 173.424 83.9575Z" fill="#59BAA1"/>
<path d="M144.615 56.4401C144.548 56.1454 144.346 56.1 144.077 56.1227C144.167 56.3721 144.324 56.5081 144.615 56.4401Z" fill="#59BAA1"/>
<path d="M163.94 108.441C163.963 108.26 163.896 108.124 163.739 108.056C163.694 108.237 163.694 108.396 163.94 108.441Z" fill="#59BAA1"/>
<path d="M144.099 56.1453C144.055 55.964 143.942 55.9186 143.763 55.9413C143.808 56.1226 143.92 56.1907 144.099 56.1453Z" fill="#59BAA1"/>
<path d="M90.7193 202.309C90.7193 202.513 90.8538 202.581 91.0332 202.581C91.0108 202.4 90.8987 202.287 90.7193 202.309Z" fill="#59BAA1"/>
<path d="M135.289 74.3455C133.226 74.2775 131.724 75.4563 130.222 76.635C127.307 78.9699 125.2 82.0075 123.025 84.9997C122.734 85.385 122.577 85.8611 122.375 86.3144C122.129 86.8358 122.285 87.1758 122.846 87.3118C126.119 88.1506 128.406 90.5308 130.917 92.5709C132.8 94.0897 134.392 95.9032 136.163 97.558C137.105 98.4194 138.114 99.3941 138.562 100.686C138.696 101.094 138.988 101.366 139.212 101.661C139.369 101.865 139.436 102.205 139.773 102.16C140.154 102.092 140.154 101.706 140.243 101.412C140.647 99.9608 140.199 98.442 140.557 96.9686C141.835 91.9362 141.589 86.8585 141.028 81.7808C140.759 79.3099 139.795 76.9524 138.001 75.1389C137.306 74.4362 136.253 74.2549 135.244 74.3229L135.289 74.3455Z" fill="#59BAA1"/>
<path d="M92.8485 78.4707C94.6645 78.176 96.3235 77.7679 98.005 77.6999C101.121 77.5639 104.125 78.0853 106.995 79.4454C108.901 80.3521 109.08 80.3295 109.573 78.3347C110.627 74.073 110.963 69.766 109.439 65.527C108.363 62.5121 106.704 61.8774 103.924 63.4642C101.704 64.7336 100.202 66.7511 98.8121 68.8366C96.7495 71.9422 94.4179 74.8664 92.8709 78.4707H92.8485Z" fill="#59BAA1"/>
<path d="M124.684 94.3171C123.653 94.3851 122.936 95.0425 122.218 95.7679C121.344 96.652 121.703 97.3774 122.173 98.2841C123.093 100.052 122.824 100.438 120.828 100.528C120.245 100.528 119.976 100.687 119.775 101.276C117.869 107.306 116.815 113.449 117.667 119.796C117.757 120.544 117.847 121.383 118.698 121.701C119.64 122.041 120.47 121.701 121.187 121.066C122.241 120.114 122.981 118.912 123.541 117.62C125.693 112.588 127.375 107.374 128.047 101.911C128.316 99.8029 127.801 97.5814 126.769 95.6319C126.343 94.8158 125.626 94.3851 124.662 94.3171H124.684Z" fill="#151414"/>
<path d="M100.583 88.672C100.763 86.9265 100.314 85.4531 98.8346 84.3877C98.0499 83.821 97.2652 83.2769 96.2564 83.8663C95.3596 84.3877 94.5525 86.0651 94.7767 86.9719C94.8215 87.1986 94.9336 87.4026 95.0009 87.6066C95.6959 89.5107 95.6959 89.5334 93.723 90.1681C93.2746 90.3041 93.2073 90.5988 93.0952 90.9388C91.7725 94.7018 90.4273 98.4421 89.822 102.386C89.7099 103.18 89.6427 104.019 89.6651 104.812C89.6651 106.081 89.8668 107.396 91.3017 107.759C92.6468 108.099 93.7454 107.396 94.4852 106.263C96.1218 103.814 97.467 101.208 98.4534 98.4421C99.5968 95.2912 100.337 92.0269 100.561 88.672H100.583Z" fill="#151414"/>
<path d="M170.689 289.469C170.801 290.602 170.958 290.376 170.778 290.557C169.837 291.668 166.362 304.158 169.792 311.843C169.097 313.044 168.738 313.611 167.864 313.429C167.595 313.384 166.765 315.084 166.093 308.805C165.465 302.866 165.644 296.791 166.878 293.073C167.371 291.577 167.707 290.285 169.747 287.769C170.106 288.086 170.599 288.676 170.689 289.446V289.469Z" fill="#151414"/>
<path d="M67.0216 289.291C65.923 289.586 66.1921 289.699 65.9679 289.563C64.7348 288.815 51.9782 287.364 45.0283 292.011C43.7504 291.512 43.145 291.24 43.1675 290.356C43.1675 290.062 41.3739 289.54 47.4047 287.84C53.0992 286.253 59.0627 285.46 62.874 286.072C64.3985 286.321 65.7213 286.457 68.5237 288.067C68.2547 288.475 67.7838 289.064 67.0216 289.268V289.291Z" fill="#151414"/>
<path d="M36.8678 267.299C39.7375 271.515 42.5623 274.235 45.6113 276.502C45.4768 278.021 45.3199 279.517 45.1854 281.036C40.5446 276.434 37.6749 272.263 36.128 267.661C35.971 267.208 36.5763 266.891 36.8678 267.299Z" stroke="#151414" stroke-width="0.85" stroke-miterlimit="10"/>
<path d="M152.73 309.734C156.049 308.328 158.156 306.538 159.905 304.429C161.115 304.996 162.326 305.54 163.514 306.107C159.927 309.008 156.654 310.437 153.022 310.505C152.663 310.505 152.394 309.87 152.708 309.734H152.73Z" stroke="#151414" stroke-width="0.72" stroke-miterlimit="10"/>
<path d="M13.014 154.457C13.6193 154.412 13.7986 153.981 13.978 153.55C15.1438 150.921 16.4665 148.382 18.0135 145.956C19.4483 143.712 21.2867 142.035 24.0218 141.695C24.941 141.581 24.9634 140.788 25.1876 140.176C25.3894 139.632 24.9634 139.224 24.4926 139.02C19.2241 136.753 16.1078 132.378 13.5072 127.504C12.8122 126.235 12.1844 124.92 11.5118 123.628C11.2652 123.175 11.0186 122.562 10.3685 122.698C9.71832 122.857 9.65106 123.447 9.56138 124.059C8.86638 128.23 7.40912 132.106 5.21203 135.687C4.33768 137.116 3.10462 138.204 1.60253 138.952C0.773012 139.382 0.862717 139.858 1.49046 140.312C6.04157 143.485 8.91122 147.996 11.3773 152.847C11.736 153.573 12.1172 154.298 12.9691 154.434L13.014 154.457ZM21.1297 140.266C17.1839 141.785 15.4128 144.959 14.1349 148.563C14.0228 148.88 13.9107 149.221 13.7762 149.538C13.6193 149.923 13.5296 150.377 13.014 150.445C12.4759 150.513 12.3414 149.991 12.162 149.651C10.8393 147.022 8.97847 144.823 6.89348 142.805C6.1088 142.035 5.25687 141.309 4.47219 140.539C4.02381 140.108 3.86688 139.7 4.5843 139.246C5.61558 138.566 6.31058 137.546 6.96074 136.504C8.46283 134.078 10.1443 131.766 10.9066 128.955C10.9738 128.706 11.0186 128.434 11.3549 128.479C11.6464 128.524 11.893 128.638 12.0275 128.955C12.319 129.658 12.6553 130.36 12.9467 131.063C14.6057 135.007 17.1615 138.113 21.1522 140.289L21.1297 140.266Z" fill="#FBF1F1"/>
<path d="M224.27 97.7205C224.315 98.0606 224.517 98.2646 224.786 98.4459C229.27 101.574 232.117 106.017 234.583 110.778C234.808 111.208 235.054 111.662 235.368 112.024C236.108 112.818 236.736 112.704 237.184 111.707C238.35 109.123 239.65 106.629 241.152 104.226C242.609 101.892 244.47 100.146 247.318 99.7834C248.237 99.67 248.237 98.854 248.461 98.2419C248.64 97.7432 248.282 97.3578 247.833 97.1538C242.094 94.6603 238.91 89.7866 236.198 84.4595C235.704 83.5075 235.234 82.5554 234.718 81.6033C234.494 81.1726 234.225 80.6739 233.619 80.8099C233.081 80.9459 232.924 81.422 232.857 81.966C232.341 85.8876 230.862 89.4919 229.023 92.9375C228.082 94.7283 226.669 96.1111 224.876 97.0632C224.607 97.1992 224.293 97.2898 224.315 97.6979L224.27 97.7205ZM244.381 98.3553C240.524 99.8514 238.708 102.912 237.475 106.448C237.341 106.833 237.184 107.241 237.027 107.627C236.87 108.012 236.78 108.465 236.265 108.511C235.727 108.556 235.592 108.057 235.435 107.695C234.269 105.382 232.678 103.41 230.884 101.574C229.92 100.599 228.934 99.6474 227.902 98.7633C227.319 98.2646 227.073 97.7886 227.947 97.2218C228.979 96.5418 229.629 95.499 230.301 94.4563C231.803 92.0761 233.418 89.7639 234.18 86.9984C234.247 86.749 234.292 86.477 234.628 86.545C234.875 86.5904 235.121 86.613 235.234 86.9077C235.525 87.6104 235.861 88.2905 236.153 89.0159C237.812 93.0055 240.39 96.1564 244.403 98.3326L244.381 98.3553Z" fill="#FBF1F1"/>
<path d="M19.9184 164.5C19.9409 164.682 20.053 164.795 20.1875 164.908C22.6536 166.631 24.2005 169.057 25.5681 171.686C25.7026 171.936 25.8147 172.185 25.9941 172.366C26.3976 172.797 26.7339 172.729 26.9805 172.185C27.6307 170.78 28.3481 169.397 29.1552 168.082C29.9623 166.79 30.9712 165.838 32.5405 165.634C33.0337 165.566 33.0562 165.112 33.1682 164.795C33.2579 164.523 33.0562 164.296 32.8095 164.206C29.6484 162.846 27.8997 160.148 26.4201 157.247C26.151 156.725 25.882 156.204 25.613 155.682C25.4784 155.433 25.3439 155.161 25.0076 155.252C24.7162 155.32 24.6265 155.592 24.5817 155.886C24.2902 158.04 23.4831 160.012 22.4743 161.916C21.9586 162.891 21.1739 163.662 20.1875 164.183C20.053 164.251 19.8736 164.319 19.8736 164.523L19.9184 164.5ZM30.9487 164.84C28.8413 165.657 27.8325 167.334 27.1599 169.283C27.0926 169.51 27.003 169.714 26.9133 169.941C26.8236 170.145 26.7788 170.394 26.4873 170.44C26.1959 170.462 26.1286 170.19 26.0165 169.986C25.3663 168.717 24.5144 167.629 23.528 166.631C22.9899 166.087 22.4518 165.566 21.8913 165.09C21.5775 164.818 21.443 164.568 21.9138 164.251C22.4743 163.888 22.833 163.299 23.1917 162.732C24.0212 161.418 24.8955 160.148 25.3215 158.629C25.3663 158.493 25.3888 158.335 25.5681 158.38C25.7026 158.403 25.8371 158.425 25.9044 158.584C26.0613 158.969 26.2407 159.355 26.4201 159.74C27.3392 161.916 28.7517 163.662 30.9487 164.863V164.84Z" fill="#FBF1F1"/>
<path d="M91.9966 31.7777C92.6019 31.7324 92.7813 31.3017 92.9606 30.871C94.1264 28.2414 95.4491 25.7026 96.9961 23.2771C98.4309 21.0329 100.269 19.3554 103.004 19.0154C103.924 18.9021 103.946 18.1087 104.17 17.4966C104.372 16.9526 103.968 16.5446 103.475 16.3405C98.2067 14.0737 95.0904 9.6987 92.4898 4.82499C91.7948 3.55556 91.1671 2.24079 90.4945 0.948696C90.2479 0.495328 90.0013 -0.116719 89.3511 0.0192915C88.7009 0.155302 88.6337 0.767349 88.544 1.3794C87.849 5.55038 86.3918 9.42668 84.1947 13.0083C83.3203 14.4364 82.0872 15.5245 80.5852 16.2725C79.7556 16.7032 79.8453 17.1793 80.4731 17.6326C85.0242 20.8062 87.8938 25.3172 90.36 30.1683C90.7187 30.8937 91.0998 31.619 91.9517 31.755L91.9966 31.7777ZM100.023 17.5193C99.8433 17.6553 99.7312 17.746 99.5967 17.814C97.2651 18.8114 95.6061 20.5342 94.4403 22.801C93.7677 24.0931 93.2745 25.4532 92.7588 26.8133C92.6019 27.1987 92.5122 27.6747 92.019 27.7427C91.4585 27.8334 91.324 27.3347 91.1446 26.972C89.934 24.5918 88.3198 22.5517 86.4366 20.6929C85.495 19.7635 84.5085 18.8567 83.5445 17.95C83.0289 17.4513 82.7823 17.0206 83.5893 16.4992C84.531 15.8872 85.1811 14.9804 85.764 14.0284C87.2885 11.5348 89.0597 9.17732 89.8443 6.27577C89.9116 6.02642 89.934 5.70906 90.2703 5.7544C90.5393 5.79973 90.8308 5.84507 90.9429 6.20776C91.055 6.57046 91.2567 6.91048 91.3913 7.25051C93.1175 11.6028 95.6958 15.2525 99.9778 17.4966L100.023 17.5193Z" fill="#FBF1F1"/>
<path d="M264.087 202.426C263.235 202.358 262.989 201.768 262.72 201.156C261.083 197.461 259.2 193.88 257.048 190.457C255.03 187.283 252.429 184.926 248.573 184.427C247.273 184.268 247.228 183.135 246.937 182.296C246.668 181.503 247.228 180.959 247.923 180.664C255.366 177.468 259.738 171.302 263.415 164.433C264.379 162.62 265.276 160.784 266.217 158.97C266.554 158.313 266.912 157.452 267.809 157.656C268.706 157.86 268.818 158.721 268.952 159.582C269.939 165.453 271.979 170.917 275.073 175.972C276.306 177.989 278.055 179.508 280.14 180.573C281.328 181.163 281.193 181.843 280.297 182.477C273.885 186.966 269.827 193.313 266.352 200.159C265.836 201.156 265.32 202.199 264.087 202.403V202.426ZM252.766 182.341C253.012 182.523 253.169 182.681 253.349 182.749C256.644 184.178 258.976 186.603 260.612 189.777C261.554 191.59 262.249 193.54 262.966 195.444C263.168 195.988 263.303 196.645 263.998 196.759C264.782 196.895 264.962 196.169 265.208 195.693C266.912 192.361 269.177 189.437 271.844 186.852C273.19 185.538 274.58 184.268 275.925 182.976C276.665 182.273 277.001 181.661 275.858 180.913C274.535 180.052 273.616 178.782 272.786 177.422C270.634 173.909 268.123 170.577 267.047 166.496C266.957 166.156 266.912 165.703 266.441 165.771C266.06 165.816 265.634 165.907 265.477 166.406C265.32 166.927 265.051 167.38 264.85 167.902C262.406 174.045 258.774 179.168 252.743 182.341H252.766Z" fill="#FBF1F1"/>
<path d="M207.703 73.5754C207.95 73.8474 208.129 74.0967 208.353 74.2781C210.774 76.0462 212.321 78.5397 213.734 81.1466C213.891 81.4413 213.98 81.7587 214.227 82.0307C214.743 82.5747 215.012 82.552 215.37 81.8493C216.2 80.2625 216.872 78.5624 217.971 77.089C218.8 75.9782 219.742 75.1622 221.087 74.8675C221.58 74.7541 221.894 74.5274 221.984 73.9834C222.074 73.394 221.625 73.2353 221.289 73.0767C218.487 71.7846 216.76 69.4497 215.348 66.8202C214.855 65.8908 214.361 64.9614 213.868 64.032C213.756 63.8053 213.666 63.5106 213.33 63.5559C212.904 63.6013 212.949 63.964 212.882 64.236C212.366 66.7295 211.537 69.1097 210.214 71.3085C209.788 72.0112 209.205 72.6006 208.465 73.0087C208.219 73.1447 208.017 73.3713 207.725 73.598L207.703 73.5754ZM209.519 73.7567C211.223 71.9886 212.478 69.9484 213.487 67.7269C213.599 67.4776 213.353 67.0015 213.823 67.0015C214.227 67.0015 214.317 67.4096 214.451 67.7269C215.46 70.3338 216.962 72.5099 219.563 73.9381C218.711 74.4141 217.971 74.7995 217.388 75.4568C216.357 76.6129 215.841 78.0184 215.303 79.4238C215.213 79.6505 215.191 79.9905 214.877 80.0585C214.496 80.1265 214.518 79.7412 214.384 79.5372C214.025 79.0158 213.756 78.4264 213.375 77.905C212.276 76.3409 210.774 75.1621 209.541 73.7567H209.519Z" fill="#FBF1F1"/>
</svg>
